<svg width="988" height="593" viewBox="0 0 988 593" fill="none" xmlns="http://www.w3.org/2000/svg">
<circle cx="691.5" cy="296.5" r="296.5" fill="#E064CC" fill-opacity="0.05"/>
<circle cx="691.5" cy="296.5" r="258.476" fill="#E064CC" fill-opacity="0.05"/>
<circle cx="688.784" cy="296.5" r="212.303" fill="#E064CC" fill-opacity="0.05"/>
<rect x="569.731" y="104.115" width="256.212" height="354.895" rx="3.62137" fill="white"/>
<rect x="592" y="197" width="206" height="36" rx="1.81069" fill="#F3F3F3"/>
<rect x="592" y="248" width="206" height="36" rx="1.81069" fill="#F3F3F3"/>
<rect x="592" y="146" width="206" height="36" rx="1.81069" fill="#F3F3F3"/>
<rect x="592" y="350" width="206" height="36" rx="1.81069" fill="#F3F3F3"/>
<rect x="592" y="401" width="206" height="36" rx="1.81069" fill="#F3F3F3"/>
<rect x="592" y="299" width="206" height="36" rx="1.81069" fill="#F3F3F3"/>
<rect x="592" y="240.35" width="52.5099" height="15.3908" rx="1.81069" fill="#FCEFFA"/>
<g filter="url(#filter0_d_123_980)">
<rect x="615" y="307" width="231.786" height="69" rx="2.67961" fill="white"/>
</g>
<rect x="625.049" y="320.398" width="44.8835" height="42.8738" rx="2.67961" fill="#66C085"/>
<rect x="678.641" y="320.398" width="152.738" height="11.3883" rx="1.33981" fill="#66C085" fill-opacity="0.11"/>
<rect x="678.641" y="339.155" width="38.8544" height="11.3883" rx="1.33981" fill="#66C085" fill-opacity="0.11"/>
<g clip-path="url(#clip0_123_980)">
<path d="M653.184 336.476H641.126C640.386 336.476 639.786 337.076 639.786 337.816V345.854C639.786 346.594 640.386 347.194 641.126 347.194H653.184C653.924 347.194 654.524 346.594 654.524 345.854V337.816C654.524 337.076 653.924 336.476 653.184 336.476Z" stroke="white" stroke-width="1.33981" stroke-linecap="round" stroke-linejoin="round"/>
<path d="M639.786 340.495H654.524" stroke="white" stroke-width="1.33981" stroke-linecap="round" stroke-linejoin="round"/>
</g>
<g filter="url(#filter1_d_123_980)">
<rect x="476.481" y="238.105" width="313.249" height="93.2504" rx="3.62137" fill="white"/>
</g>
<rect x="490.061" y="256.212" width="60.658" height="57.942" rx="3.62137" fill="#FD377E"/>
<rect x="562.489" y="256.212" width="206.418" height="15.3908" rx="1.81069" fill="#FCEFFA"/>
<rect x="562.489" y="281.562" width="52.5099" height="15.3908" rx="1.81069" fill="#FCEFFA"/>
<g clip-path="url(#clip1_123_980)">
<path d="M528.086 277.94H511.789C510.789 277.94 509.979 278.751 509.979 279.751V290.615C509.979 291.615 510.789 292.426 511.789 292.426H528.086C529.086 292.426 529.896 291.615 529.896 290.615V279.751C529.896 278.751 529.086 277.94 528.086 277.94Z" stroke="white" stroke-width="1.81069" stroke-linecap="round" stroke-linejoin="round"/>
<path d="M509.979 283.373H529.896" stroke="white" stroke-width="1.81069" stroke-linecap="round" stroke-linejoin="round"/>
</g>
<g filter="url(#filter2_d_123_980)">
<rect x="476.481" y="238.105" width="313.249" height="93.2504" rx="3.62137" fill="white"/>
</g>
<rect x="490.061" y="256.212" width="60.658" height="57.942" rx="3.62137" fill="#FD377E"/>
<rect x="562.489" y="256.212" width="206.418" height="15.3908" rx="1.81069" fill="#FCEFFA"/>
<rect x="562.489" y="281.562" width="52.5099" height="15.3908" rx="1.81069" fill="#FCEFFA"/>
<g clip-path="url(#clip2_123_980)">
<path d="M528.086 277.94H511.789C510.789 277.94 509.979 278.751 509.979 279.751V290.615C509.979 291.615 510.789 292.426 511.789 292.426H528.086C529.086 292.426 529.896 291.615 529.896 290.615V279.751C529.896 278.751 529.086 277.94 528.086 277.94Z" stroke="white" stroke-width="1.81069" stroke-linecap="round" stroke-linejoin="round"/>
<path d="M509.979 283.373H529.896" stroke="white" stroke-width="1.81069" stroke-linecap="round" stroke-linejoin="round"/>
</g>
<circle cx="765.5" cy="119.5" r="4.5" fill="#FD377E"/>
<circle cx="780.5" cy="119.5" r="4.5" fill="#66C085"/>
<circle cx="795.5" cy="119.5" r="4.5" fill="black"/>
<path d="M15.694 207.418C12.806 207.418 10.336 206.848 8.284 205.708C6.232 204.568 4.64867 202.972 3.534 200.92C2.44467 198.843 1.9 196.398 1.9 193.586C1.9 190.799 2.44467 188.38 3.534 186.328C4.64867 184.251 6.232 182.642 8.284 181.502C10.336 180.362 12.806 179.792 15.694 179.792C16.9607 179.792 18.24 179.957 19.532 180.286C20.8493 180.615 21.9893 181.059 22.952 181.616C23.7373 182.072 24.2187 182.642 24.396 183.326C24.5733 184.01 24.51 184.656 24.206 185.264C23.9273 185.872 23.484 186.303 22.876 186.556C22.268 186.809 21.584 186.721 20.824 186.29C20.064 185.834 19.266 185.505 18.43 185.302C17.594 185.099 16.7453 184.998 15.884 184.998C13.3253 184.998 11.3873 185.745 10.07 187.24C8.778 188.709 8.132 190.825 8.132 193.586C8.132 196.347 8.778 198.475 10.07 199.97C11.3873 201.465 13.3253 202.212 15.884 202.212C16.6947 202.212 17.518 202.111 18.354 201.908C19.2153 201.705 20.0387 201.389 20.824 200.958C21.6347 200.527 22.344 200.439 22.952 200.692C23.56 200.92 24.0033 201.325 24.282 201.908C24.586 202.465 24.662 203.086 24.51 203.77C24.358 204.429 23.9273 204.973 23.218 205.404C22.2553 206.037 21.09 206.531 19.722 206.886C18.3793 207.241 17.0367 207.418 15.694 207.418ZM36.5346 207.418C34.3306 207.418 32.4306 207.025 30.8346 206.24C29.264 205.429 28.048 204.302 27.1866 202.858C26.3506 201.389 25.9326 199.666 25.9326 197.69C25.9326 195.765 26.338 194.08 27.1486 192.636C27.9846 191.167 29.112 190.027 30.5306 189.216C31.9746 188.38 33.634 187.962 35.5086 187.962C38.2193 187.962 40.3726 188.823 41.9686 190.546C43.5646 192.243 44.3626 194.549 44.3626 197.462C44.3626 198.425 43.7673 198.906 42.5766 198.906H31.4046C31.6073 200.375 32.1393 201.452 33.0006 202.136C33.8873 202.795 35.1033 203.124 36.6486 203.124C37.2566 203.124 37.9406 203.061 38.7006 202.934C39.486 202.782 40.2333 202.529 40.9426 202.174C41.6773 201.819 42.298 201.756 42.8046 201.984C43.3113 202.187 43.6533 202.541 43.8306 203.048C44.0333 203.555 44.0333 204.087 43.8306 204.644C43.6533 205.176 43.2353 205.619 42.5766 205.974C41.69 206.455 40.702 206.81 39.6126 207.038C38.5486 207.291 37.5226 207.418 36.5346 207.418ZM35.7366 191.762C34.5206 191.762 33.5326 192.129 32.7726 192.864C32.038 193.599 31.582 194.625 31.4046 195.942H39.6126C39.4606 193.155 38.1686 191.762 35.7366 191.762ZM50.5881 207.342C48.6628 207.342 47.7001 206.367 47.7001 204.416V190.926C47.7001 189.001 48.6374 188.038 50.5121 188.038C52.3868 188.038 53.3241 189.001 53.3241 190.926V191.078C53.9574 190.065 54.8061 189.292 55.8701 188.76C56.9341 188.228 58.1248 187.962 59.4421 187.962C61.6461 187.962 63.2928 188.608 64.3821 189.9C65.4714 191.167 66.0161 193.13 66.0161 195.79V204.416C66.0161 206.367 65.0534 207.342 63.1281 207.342C62.2161 207.342 61.5068 207.089 61.0001 206.582C60.5188 206.075 60.2781 205.353 60.2781 204.416V196.056C60.2781 194.764 60.0374 193.839 59.5561 193.282C59.0748 192.699 58.3654 192.408 57.4281 192.408C56.2121 192.408 55.2368 192.788 54.5021 193.548C53.7928 194.308 53.4381 195.321 53.4381 196.588V204.416C53.4381 206.367 52.4881 207.342 50.5881 207.342ZM79.4577 207.418C74.2137 207.418 71.5917 204.872 71.5917 199.78V192.636H69.9957C68.501 192.636 67.7537 191.927 67.7537 190.508C67.7537 189.064 68.501 188.342 69.9957 188.342H71.5917V185.454C71.5917 183.503 72.5544 182.528 74.4797 182.528C76.3797 182.528 77.3297 183.503 77.3297 185.454V188.342H80.9397C82.409 188.342 83.1437 189.064 83.1437 190.508C83.1437 191.927 82.409 192.636 80.9397 192.636H77.3297V199.552C77.3297 200.616 77.5704 201.414 78.0517 201.946C78.5584 202.478 79.3564 202.744 80.4457 202.744C80.8257 202.744 81.1804 202.706 81.5097 202.63C81.839 202.554 82.143 202.503 82.4217 202.478C82.7764 202.453 83.0677 202.567 83.2957 202.82C83.5237 203.073 83.6377 203.593 83.6377 204.378C83.6377 205.011 83.5364 205.556 83.3337 206.012C83.131 206.443 82.7764 206.759 82.2697 206.962C81.9404 207.089 81.4844 207.19 80.9017 207.266C80.3444 207.367 79.863 207.418 79.4577 207.418ZM88.627 207.342C86.651 207.342 85.663 206.367 85.663 204.416V190.926C85.663 189.001 86.6003 188.038 88.475 188.038C90.3497 188.038 91.287 189.001 91.287 190.926V191.61C92.199 189.355 94.0863 188.139 96.949 187.962C97.5823 187.911 98.0637 188.076 98.393 188.456C98.7477 188.811 98.9377 189.406 98.963 190.242C99.0137 191.027 98.849 191.648 98.469 192.104C98.1143 192.56 97.5063 192.839 96.645 192.94L95.771 193.016C92.9337 193.295 91.515 194.739 91.515 197.348V204.416C91.515 206.367 90.5523 207.342 88.627 207.342ZM107.446 207.418C106.052 207.418 104.824 207.152 103.76 206.62C102.696 206.088 101.847 205.366 101.214 204.454C100.606 203.542 100.302 202.516 100.302 201.376C100.302 200.033 100.656 198.957 101.366 198.146C102.075 197.335 103.228 196.765 104.824 196.436C106.42 196.081 108.535 195.904 111.17 195.904H112.538V195.258C112.538 194.143 112.284 193.358 111.778 192.902C111.271 192.421 110.41 192.18 109.194 192.18C108.51 192.18 107.762 192.269 106.952 192.446C106.141 192.598 105.267 192.864 104.33 193.244C103.62 193.548 103.025 193.573 102.544 193.32C102.062 193.041 101.746 192.636 101.594 192.104C101.442 191.547 101.48 190.989 101.708 190.432C101.961 189.875 102.442 189.469 103.152 189.216C104.342 188.76 105.457 188.443 106.496 188.266C107.56 188.063 108.535 187.962 109.422 187.962C112.31 187.962 114.463 188.621 115.882 189.938C117.3 191.23 118.01 193.244 118.01 195.98V204.416C118.01 206.367 117.123 207.342 115.35 207.342C113.551 207.342 112.652 206.367 112.652 204.416V204.188C112.272 205.176 111.626 205.961 110.714 206.544C109.827 207.127 108.738 207.418 107.446 207.418ZM108.738 203.58C109.802 203.58 110.701 203.213 111.436 202.478C112.17 201.743 112.538 200.793 112.538 199.628V198.868H111.208C109.257 198.868 107.876 199.045 107.066 199.4C106.255 199.729 105.85 200.312 105.85 201.148C105.85 201.857 106.09 202.44 106.572 202.896C107.078 203.352 107.8 203.58 108.738 203.58ZM129.016 207.418C124.532 207.418 122.29 204.923 122.29 199.932V182.794C122.29 180.843 123.253 179.868 125.178 179.868C127.078 179.868 128.028 180.843 128.028 182.794V199.704C128.028 200.743 128.243 201.515 128.674 202.022C129.13 202.503 129.725 202.744 130.46 202.744C130.663 202.744 130.853 202.731 131.03 202.706C131.233 202.681 131.423 202.668 131.6 202.668C132.005 202.643 132.284 202.769 132.436 203.048C132.613 203.327 132.702 203.897 132.702 204.758C132.702 206.227 132.081 207.063 130.84 207.266C130.587 207.291 130.295 207.317 129.966 207.342C129.637 207.393 129.32 207.418 129.016 207.418ZM137.832 184.922C136.768 184.922 135.945 184.681 135.362 184.2C134.805 183.693 134.526 182.984 134.526 182.072C134.526 181.135 134.805 180.425 135.362 179.944C135.945 179.437 136.768 179.184 137.832 179.184C140.011 179.184 141.1 180.147 141.1 182.072C141.1 183.972 140.011 184.922 137.832 184.922ZM137.832 207.304C136.895 207.304 136.173 207.038 135.666 206.506C135.185 205.949 134.944 205.176 134.944 204.188V191.192C134.944 189.089 135.907 188.038 137.832 188.038C138.744 188.038 139.441 188.317 139.922 188.874C140.429 189.406 140.682 190.179 140.682 191.192V204.188C140.682 205.176 140.442 205.949 139.96 206.506C139.479 207.038 138.77 207.304 137.832 207.304ZM146.708 207C145.948 207 145.366 206.759 144.96 206.278C144.58 205.771 144.416 205.163 144.466 204.454C144.517 203.745 144.834 203.086 145.416 202.478L153.624 192.636H146.48C145.036 192.636 144.314 191.927 144.314 190.508C144.314 189.064 145.036 188.342 146.48 188.342H157.462C158.349 188.342 159.008 188.595 159.438 189.102C159.894 189.583 160.097 190.179 160.046 190.888C159.996 191.572 159.692 192.218 159.134 192.826L150.85 202.744H158.412C159.856 202.744 160.578 203.453 160.578 204.872C160.578 206.291 159.856 207 158.412 207H146.708ZM172.689 207.418C170.485 207.418 168.585 207.025 166.989 206.24C165.418 205.429 164.202 204.302 163.341 202.858C162.505 201.389 162.087 199.666 162.087 197.69C162.087 195.765 162.492 194.08 163.303 192.636C164.139 191.167 165.266 190.027 166.685 189.216C168.129 188.38 169.788 187.962 171.663 187.962C174.374 187.962 176.527 188.823 178.123 190.546C179.719 192.243 180.517 194.549 180.517 197.462C180.517 198.425 179.922 198.906 178.731 198.906H167.559C167.762 200.375 168.294 201.452 169.155 202.136C170.042 202.795 171.258 203.124 172.803 203.124C173.411 203.124 174.095 203.061 174.855 202.934C175.64 202.782 176.388 202.529 177.097 202.174C177.832 201.819 178.452 201.756 178.959 201.984C179.466 202.187 179.808 202.541 179.985 203.048C180.188 203.555 180.188 204.087 179.985 204.644C179.808 205.176 179.39 205.619 178.731 205.974C177.844 206.455 176.856 206.81 175.767 207.038C174.703 207.291 173.677 207.418 172.689 207.418ZM171.891 191.762C170.675 191.762 169.687 192.129 168.927 192.864C168.192 193.599 167.736 194.625 167.559 195.942H175.767C175.615 193.155 174.323 191.762 171.891 191.762ZM203.436 207.418C201.434 207.418 199.686 207.025 198.192 206.24C196.722 205.429 195.582 204.302 194.772 202.858C193.961 201.389 193.556 199.653 193.556 197.652C193.556 195.676 193.961 193.966 194.772 192.522C195.582 191.053 196.722 189.925 198.192 189.14C199.686 188.355 201.434 187.962 203.436 187.962C205.437 187.962 207.172 188.355 208.642 189.14C210.136 189.925 211.289 191.053 212.1 192.522C212.936 193.966 213.354 195.676 213.354 197.652C213.354 199.653 212.936 201.389 212.1 202.858C211.289 204.302 210.136 205.429 208.642 206.24C207.172 207.025 205.437 207.418 203.436 207.418ZM203.436 203.124C204.652 203.124 205.64 202.681 206.4 201.794C207.185 200.907 207.578 199.527 207.578 197.652C207.578 195.803 207.185 194.447 206.4 193.586C205.64 192.699 204.652 192.256 203.436 192.256C202.22 192.256 201.232 192.699 200.472 193.586C199.712 194.447 199.332 195.803 199.332 197.652C199.332 199.527 199.712 200.907 200.472 201.794C201.232 202.681 202.22 203.124 203.436 203.124ZM11.286 255.418C9.25933 255.418 7.486 255.025 5.966 254.24C4.47133 253.429 3.31867 252.289 2.508 250.82C1.69733 249.351 1.292 247.615 1.292 245.614C1.292 243.613 1.69733 241.89 2.508 240.446C3.31867 239.002 4.47133 237.9 5.966 237.14C7.486 236.355 9.25933 235.962 11.286 235.962C12.0713 235.962 12.9073 236.063 13.794 236.266C14.706 236.443 15.58 236.76 16.416 237.216C17.0493 237.52 17.442 237.951 17.594 238.508C17.746 239.04 17.708 239.572 17.48 240.104C17.2773 240.636 16.9353 241.029 16.454 241.282C15.998 241.51 15.4533 241.459 14.82 241.13C13.8067 240.598 12.8187 240.332 11.856 240.332C10.3613 240.332 9.196 240.801 8.36 241.738C7.54933 242.65 7.144 243.955 7.144 245.652C7.144 247.324 7.54933 248.641 8.36 249.604C9.196 250.541 10.3613 251.01 11.856 251.01C12.312 251.01 12.7933 250.959 13.3 250.858C13.8067 250.731 14.3133 250.529 14.82 250.25C15.4533 249.921 15.998 249.883 16.454 250.136C16.9353 250.389 17.2647 250.782 17.442 251.314C17.6193 251.821 17.632 252.353 17.48 252.91C17.328 253.467 16.948 253.898 16.34 254.202C15.4787 254.633 14.6173 254.937 13.756 255.114C12.8947 255.317 12.0713 255.418 11.286 255.418ZM28.9474 255.418C26.9461 255.418 25.1981 255.025 23.7034 254.24C22.2341 253.429 21.0941 252.302 20.2834 250.858C19.4727 249.389 19.0674 247.653 19.0674 245.652C19.0674 243.676 19.4727 241.966 20.2834 240.522C21.0941 239.053 22.2341 237.925 23.7034 237.14C25.1981 236.355 26.9461 235.962 28.9474 235.962C30.9487 235.962 32.6841 236.355 34.1534 237.14C35.6481 237.925 36.8007 239.053 37.6114 240.522C38.4474 241.966 38.8654 243.676 38.8654 245.652C38.8654 247.653 38.4474 249.389 37.6114 250.858C36.8007 252.302 35.6481 253.429 34.1534 254.24C32.6841 255.025 30.9487 255.418 28.9474 255.418ZM28.9474 251.124C30.1634 251.124 31.1514 250.681 31.9114 249.794C32.6967 248.907 33.0894 247.527 33.0894 245.652C33.0894 243.803 32.6967 242.447 31.9114 241.586C31.1514 240.699 30.1634 240.256 28.9474 240.256C27.7314 240.256 26.7434 240.699 25.9834 241.586C25.2234 242.447 24.8434 243.803 24.8434 245.652C24.8434 247.527 25.2234 248.907 25.9834 249.794C26.7434 250.681 27.7314 251.124 28.9474 251.124ZM45.2443 255.342C43.319 255.342 42.3563 254.367 42.3563 252.416V238.926C42.3563 237.001 43.2937 236.038 45.1683 236.038C47.043 236.038 47.9803 237.001 47.9803 238.926V239.078C48.6137 238.065 49.4623 237.292 50.5263 236.76C51.5903 236.228 52.781 235.962 54.0983 235.962C56.3023 235.962 57.949 236.608 59.0383 237.9C60.1277 239.167 60.6723 241.13 60.6723 243.79V252.416C60.6723 254.367 59.7097 255.342 57.7843 255.342C56.8723 255.342 56.163 255.089 55.6563 254.582C55.175 254.075 54.9343 253.353 54.9343 252.416V244.056C54.9343 242.764 54.6937 241.839 54.2123 241.282C53.731 240.699 53.0217 240.408 52.0843 240.408C50.8683 240.408 49.893 240.788 49.1583 241.548C48.449 242.308 48.0943 243.321 48.0943 244.588V252.416C48.0943 254.367 47.1443 255.342 45.2443 255.342ZM74.114 255.418C68.87 255.418 66.248 252.872 66.248 247.78V240.636H64.652C63.1573 240.636 62.41 239.927 62.41 238.508C62.41 237.064 63.1573 236.342 64.652 236.342H66.248V233.454C66.248 231.503 67.2106 230.528 69.136 230.528C71.036 230.528 71.986 231.503 71.986 233.454V236.342H75.596C77.0653 236.342 77.8 237.064 77.8 238.508C77.8 239.927 77.0653 240.636 75.596 240.636H71.986V247.552C71.986 248.616 72.2266 249.414 72.708 249.946C73.2146 250.478 74.0126 250.744 75.102 250.744C75.482 250.744 75.8366 250.706 76.166 250.63C76.4953 250.554 76.7993 250.503 77.078 250.478C77.4326 250.453 77.724 250.567 77.952 250.82C78.18 251.073 78.294 251.593 78.294 252.378C78.294 253.011 78.1926 253.556 77.99 254.012C77.7873 254.443 77.4326 254.759 76.926 254.962C76.5966 255.089 76.1406 255.19 75.558 255.266C75.0006 255.367 74.5193 255.418 74.114 255.418ZM83.2832 255.342C81.3072 255.342 80.3192 254.367 80.3192 252.416V238.926C80.3192 237.001 81.2566 236.038 83.1312 236.038C85.0059 236.038 85.9432 237.001 85.9432 238.926V239.61C86.8552 237.355 88.7426 236.139 91.6052 235.962C92.2386 235.911 92.7199 236.076 93.0492 236.456C93.4039 236.811 93.5939 237.406 93.6192 238.242C93.6699 239.027 93.5052 239.648 93.1252 240.104C92.7706 240.56 92.1626 240.839 91.3012 240.94L90.4272 241.016C87.5899 241.295 86.1712 242.739 86.1712 245.348V252.416C86.1712 254.367 85.2086 255.342 83.2832 255.342ZM104.613 255.418C102.612 255.418 100.864 255.025 99.3694 254.24C97.9001 253.429 96.7601 252.302 95.9494 250.858C95.1387 249.389 94.7334 247.653 94.7334 245.652C94.7334 243.676 95.1387 241.966 95.9494 240.522C96.7601 239.053 97.9001 237.925 99.3694 237.14C100.864 236.355 102.612 235.962 104.613 235.962C106.615 235.962 108.35 236.355 109.819 237.14C111.314 237.925 112.467 239.053 113.277 240.522C114.113 241.966 114.531 243.676 114.531 245.652C114.531 247.653 114.113 249.389 113.277 250.858C112.467 252.302 111.314 253.429 109.819 254.24C108.35 255.025 106.615 255.418 104.613 255.418ZM104.613 251.124C105.829 251.124 106.817 250.681 107.577 249.794C108.363 248.907 108.755 247.527 108.755 245.652C108.755 243.803 108.363 242.447 107.577 241.586C106.817 240.699 105.829 240.256 104.613 240.256C103.397 240.256 102.409 240.699 101.649 241.586C100.889 242.447 100.509 243.803 100.509 245.652C100.509 247.527 100.889 248.907 101.649 249.794C102.409 250.681 103.397 251.124 104.613 251.124ZM124.748 255.418C120.264 255.418 118.022 252.923 118.022 247.932V230.794C118.022 228.843 118.985 227.868 120.91 227.868C122.81 227.868 123.76 228.843 123.76 230.794V247.704C123.76 248.743 123.976 249.515 124.406 250.022C124.862 250.503 125.458 250.744 126.192 250.744C126.395 250.744 126.585 250.731 126.762 250.706C126.965 250.681 127.155 250.668 127.332 250.668C127.738 250.643 128.016 250.769 128.168 251.048C128.346 251.327 128.434 251.897 128.434 252.758C128.434 254.227 127.814 255.063 126.572 255.266C126.319 255.291 126.028 255.317 125.698 255.342C125.369 255.393 125.052 255.418 124.748 255.418ZM140.181 255.418C137.977 255.418 136.077 255.025 134.481 254.24C132.91 253.429 131.694 252.302 130.833 250.858C129.997 249.389 129.579 247.666 129.579 245.69C129.579 243.765 129.984 242.08 130.795 240.636C131.631 239.167 132.758 238.027 134.177 237.216C135.621 236.38 137.28 235.962 139.155 235.962C141.866 235.962 144.019 236.823 145.615 238.546C147.211 240.243 148.009 242.549 148.009 245.462C148.009 246.425 147.414 246.906 146.223 246.906H135.051C135.254 248.375 135.786 249.452 136.647 250.136C137.534 250.795 138.75 251.124 140.295 251.124C140.903 251.124 141.587 251.061 142.347 250.934C143.132 250.782 143.88 250.529 144.589 250.174C145.324 249.819 145.944 249.756 146.451 249.984C146.958 250.187 147.3 250.541 147.477 251.048C147.68 251.555 147.68 252.087 147.477 252.644C147.3 253.176 146.882 253.619 146.223 253.974C145.336 254.455 144.348 254.81 143.259 255.038C142.195 255.291 141.169 255.418 140.181 255.418ZM139.383 239.762C138.167 239.762 137.179 240.129 136.419 240.864C135.684 241.599 135.228 242.625 135.051 243.942H143.259C143.107 241.155 141.815 239.762 139.383 239.762ZM169.218 255.418C167.597 255.418 166.165 255.025 164.924 254.24C163.708 253.429 162.758 252.302 162.074 250.858C161.39 249.389 161.048 247.653 161.048 245.652C161.048 243.651 161.39 241.928 162.074 240.484C162.758 239.04 163.708 237.925 164.924 237.14C166.165 236.355 167.597 235.962 169.218 235.962C170.459 235.962 171.599 236.228 172.638 236.76C173.677 237.292 174.462 238.001 174.994 238.888V230.794C174.994 228.843 175.944 227.868 177.844 227.868C179.769 227.868 180.732 228.843 180.732 230.794V252.416C180.732 254.367 179.782 255.342 177.882 255.342C175.982 255.342 175.032 254.367 175.032 252.416V252.302C174.525 253.265 173.74 254.025 172.676 254.582C171.637 255.139 170.485 255.418 169.218 255.418ZM170.928 251.124C172.144 251.124 173.132 250.681 173.892 249.794C174.677 248.907 175.07 247.527 175.07 245.652C175.07 243.803 174.677 242.447 173.892 241.586C173.132 240.699 172.144 240.256 170.928 240.256C169.712 240.256 168.724 240.699 167.964 241.586C167.204 242.447 166.824 243.803 166.824 245.652C166.824 247.527 167.204 248.907 167.964 249.794C168.724 250.681 169.712 251.124 170.928 251.124ZM191.461 255.418C190.068 255.418 188.839 255.152 187.775 254.62C186.711 254.088 185.863 253.366 185.229 252.454C184.621 251.542 184.317 250.516 184.317 249.376C184.317 248.033 184.672 246.957 185.381 246.146C186.091 245.335 187.243 244.765 188.839 244.436C190.435 244.081 192.551 243.904 195.185 243.904H196.553V243.258C196.553 242.143 196.3 241.358 195.793 240.902C195.287 240.421 194.425 240.18 193.209 240.18C192.525 240.18 191.778 240.269 190.967 240.446C190.157 240.598 189.283 240.864 188.345 241.244C187.636 241.548 187.041 241.573 186.559 241.32C186.078 241.041 185.761 240.636 185.609 240.104C185.457 239.547 185.495 238.989 185.723 238.432C185.977 237.875 186.458 237.469 187.167 237.216C188.358 236.76 189.473 236.443 190.511 236.266C191.575 236.063 192.551 235.962 193.437 235.962C196.325 235.962 198.479 236.621 199.897 237.938C201.316 239.23 202.025 241.244 202.025 243.98V252.416C202.025 254.367 201.139 255.342 199.365 255.342C197.567 255.342 196.667 254.367 196.667 252.416V252.188C196.287 253.176 195.641 253.961 194.729 254.544C193.843 255.127 192.753 255.418 191.461 255.418ZM192.753 251.58C193.817 251.58 194.717 251.213 195.451 250.478C196.186 249.743 196.553 248.793 196.553 247.628V246.868H195.223C193.273 246.868 191.892 247.045 191.081 247.4C190.271 247.729 189.865 248.312 189.865 249.148C189.865 249.857 190.106 250.44 190.587 250.896C191.094 251.352 191.816 251.58 192.753 251.58ZM213.45 255.418C212.335 255.418 211.182 255.317 209.992 255.114C208.826 254.911 207.762 254.569 206.8 254.088C206.166 253.759 205.748 253.341 205.546 252.834C205.368 252.327 205.368 251.833 205.546 251.352C205.723 250.871 206.04 250.516 206.496 250.288C206.952 250.035 207.484 250.035 208.092 250.288C209.13 250.719 210.08 251.023 210.942 251.2C211.828 251.377 212.677 251.466 213.488 251.466C214.552 251.466 215.337 251.301 215.844 250.972C216.35 250.617 216.604 250.161 216.604 249.604C216.604 248.717 215.958 248.16 214.666 247.932L210.676 247.21C209.08 246.931 207.864 246.361 207.028 245.5C206.192 244.639 205.774 243.511 205.774 242.118C205.774 240.851 206.128 239.762 206.838 238.85C207.547 237.938 208.522 237.229 209.764 236.722C211.005 236.215 212.436 235.962 214.058 235.962C216.287 235.962 218.263 236.393 219.986 237.254C220.568 237.533 220.923 237.925 221.05 238.432C221.202 238.939 221.176 239.433 220.974 239.914C220.771 240.395 220.442 240.763 219.986 241.016C219.53 241.244 218.985 241.219 218.352 240.94C217.516 240.56 216.756 240.294 216.072 240.142C215.388 239.965 214.742 239.876 214.134 239.876C212.994 239.876 212.17 240.066 211.664 240.446C211.157 240.801 210.904 241.257 210.904 241.814C210.904 242.701 211.499 243.258 212.69 243.486L216.68 244.208C218.326 244.487 219.58 245.044 220.442 245.88C221.303 246.691 221.734 247.805 221.734 249.224C221.734 251.175 220.974 252.695 219.454 253.784C217.934 254.873 215.932 255.418 213.45 255.418ZM242.766 255.418C241.651 255.418 240.499 255.317 239.308 255.114C238.143 254.911 237.079 254.569 236.116 254.088C235.483 253.759 235.065 253.341 234.862 252.834C234.685 252.327 234.685 251.833 234.862 251.352C235.039 250.871 235.356 250.516 235.812 250.288C236.268 250.035 236.8 250.035 237.408 250.288C238.447 250.719 239.397 251.023 240.258 251.2C241.145 251.377 241.993 251.466 242.804 251.466C243.868 251.466 244.653 251.301 245.16 250.972C245.667 250.617 245.92 250.161 245.92 249.604C245.92 248.717 245.274 248.16 243.982 247.932L239.992 247.21C238.396 246.931 237.18 246.361 236.344 245.5C235.508 244.639 235.09 243.511 235.09 242.118C235.09 240.851 235.445 239.762 236.154 238.85C236.863 237.938 237.839 237.229 239.08 236.722C240.321 236.215 241.753 235.962 243.374 235.962C245.603 235.962 247.579 236.393 249.302 237.254C249.885 237.533 250.239 237.925 250.366 238.432C250.518 238.939 250.493 239.433 250.29 239.914C250.087 240.395 249.758 240.763 249.302 241.016C248.846 241.244 248.301 241.219 247.668 240.94C246.832 240.56 246.072 240.294 245.388 240.142C244.704 239.965 244.058 239.876 243.45 239.876C242.31 239.876 241.487 240.066 240.98 240.446C240.473 240.801 240.22 241.257 240.22 241.814C240.22 242.701 240.815 243.258 242.006 243.486L245.996 244.208C247.643 244.487 248.897 245.044 249.758 245.88C250.619 246.691 251.05 247.805 251.05 249.224C251.05 251.175 250.29 252.695 248.77 253.784C247.25 254.873 245.249 255.418 242.766 255.418ZM261.203 255.418C258.822 255.418 257.061 254.759 255.921 253.442C254.806 252.125 254.249 250.149 254.249 247.514V238.926C254.249 237.001 255.199 236.038 257.099 236.038C259.024 236.038 259.987 237.001 259.987 238.926V247.666C259.987 249.87 260.937 250.972 262.837 250.972C263.926 250.972 264.813 250.592 265.497 249.832C266.206 249.047 266.561 248.021 266.561 246.754V238.926C266.561 237.001 267.511 236.038 269.411 236.038C271.336 236.038 272.299 237.001 272.299 238.926V252.416C272.299 254.367 271.374 255.342 269.525 255.342C268.613 255.342 267.916 255.089 267.435 254.582C266.954 254.075 266.713 253.366 266.713 252.454C265.472 254.43 263.635 255.418 261.203 255.418ZM283.047 255.418C281.654 255.418 280.425 255.152 279.361 254.62C278.297 254.088 277.448 253.366 276.815 252.454C276.207 251.542 275.903 250.516 275.903 249.376C275.903 248.033 276.258 246.957 276.967 246.146C277.676 245.335 278.829 244.765 280.425 244.436C282.021 244.081 284.136 243.904 286.771 243.904H288.139V243.258C288.139 242.143 287.886 241.358 287.379 240.902C286.872 240.421 286.011 240.18 284.795 240.18C284.111 240.18 283.364 240.269 282.553 240.446C281.742 240.598 280.868 240.864 279.931 241.244C279.222 241.548 278.626 241.573 278.145 241.32C277.664 241.041 277.347 240.636 277.195 240.104C277.043 239.547 277.081 238.989 277.309 238.432C277.562 237.875 278.044 237.469 278.753 237.216C279.944 236.76 281.058 236.443 282.097 236.266C283.161 236.063 284.136 235.962 285.023 235.962C287.911 235.962 290.064 236.621 291.483 237.938C292.902 239.23 293.611 241.244 293.611 243.98V252.416C293.611 254.367 292.724 255.342 290.951 255.342C289.152 255.342 288.253 254.367 288.253 252.416V252.188C287.873 253.176 287.227 253.961 286.315 254.544C285.428 255.127 284.339 255.418 283.047 255.418ZM284.339 251.58C285.403 251.58 286.302 251.213 287.037 250.478C287.772 249.743 288.139 248.793 288.139 247.628V246.868H286.809C284.858 246.868 283.478 247.045 282.667 247.4C281.856 247.729 281.451 248.312 281.451 249.148C281.451 249.857 281.692 250.44 282.173 250.896C282.68 251.352 283.402 251.58 284.339 251.58ZM305.036 255.418C303.921 255.418 302.768 255.317 301.578 255.114C300.412 254.911 299.348 254.569 298.386 254.088C297.752 253.759 297.334 253.341 297.132 252.834C296.954 252.327 296.954 251.833 297.132 251.352C297.309 250.871 297.626 250.516 298.082 250.288C298.538 250.035 299.07 250.035 299.678 250.288C300.716 250.719 301.666 251.023 302.528 251.2C303.414 251.377 304.263 251.466 305.074 251.466C306.138 251.466 306.923 251.301 307.43 250.972C307.936 250.617 308.19 250.161 308.19 249.604C308.19 248.717 307.544 248.16 306.252 247.932L302.262 247.21C300.666 246.931 299.45 246.361 298.614 245.5C297.778 244.639 297.36 243.511 297.36 242.118C297.36 240.851 297.714 239.762 298.424 238.85C299.133 237.938 300.108 237.229 301.35 236.722C302.591 236.215 304.022 235.962 305.644 235.962C307.873 235.962 309.849 236.393 311.572 237.254C312.154 237.533 312.509 237.925 312.636 238.432C312.788 238.939 312.762 239.433 312.56 239.914C312.357 240.395 312.028 240.763 311.572 241.016C311.116 241.244 310.571 241.219 309.938 240.94C309.102 240.56 308.342 240.294 307.658 240.142C306.974 239.965 306.328 239.876 305.719 239.876C304.58 239.876 303.756 240.066 303.25 240.446C302.743 240.801 302.49 241.257 302.49 241.814C302.49 242.701 303.085 243.258 304.276 243.486L308.266 244.208C309.912 244.487 311.166 245.044 312.028 245.88C312.889 246.691 313.32 247.805 313.32 249.224C313.32 251.175 312.56 252.695 311.04 253.784C309.52 254.873 307.518 255.418 305.036 255.418ZM19.418 280.922C17.3153 280.922 16.264 279.972 16.264 278.072C16.264 276.147 17.3153 275.184 19.418 275.184C21.5207 275.184 22.572 276.147 22.572 278.072C22.572 278.984 22.2933 279.693 21.736 280.2C21.204 280.681 20.4313 280.922 19.418 280.922ZM6.536 303.342C5.59867 303.342 4.87667 303.089 4.37 302.582C3.88867 302.075 3.648 301.353 3.648 300.416V288.636H2.28C0.785333 288.636 0.038 287.927 0.038 286.508C0.038 285.064 0.785333 284.342 2.28 284.342H3.648C3.69867 281.783 4.38267 279.858 5.7 278.566C7.01733 277.249 8.94267 276.451 11.476 276.172L12.578 276.058C13.4647 275.982 14.1107 276.134 14.516 276.514C14.9467 276.894 15.1747 277.363 15.2 277.92C15.2507 278.477 15.1367 278.984 14.858 279.44C14.5793 279.896 14.1867 280.149 13.68 280.2L12.882 280.276C11.6153 280.377 10.716 280.707 10.184 281.264C9.652 281.796 9.386 282.607 9.386 283.696V284.342H19.304C21.204 284.342 22.154 285.381 22.154 287.458V300.188C22.154 301.176 21.9133 301.949 21.432 302.506C20.9507 303.038 20.2413 303.304 19.304 303.304C18.392 303.304 17.6827 303.038 17.176 302.506C16.6693 301.949 16.416 301.176 16.416 300.188V288.636H9.386V300.416C9.386 302.367 8.436 303.342 6.536 303.342ZM29.4729 303.342C27.5475 303.342 26.5849 302.367 26.5849 300.416V286.926C26.5849 285.001 27.5222 284.038 29.3969 284.038C31.2715 284.038 32.2089 285.001 32.2089 286.926V287.078C32.8422 286.065 33.6909 285.292 34.7549 284.76C35.8189 284.228 37.0095 283.962 38.3269 283.962C40.5309 283.962 42.1775 284.608 43.2669 285.9C44.3562 287.167 44.9009 289.13 44.9009 291.79V300.416C44.9009 302.367 43.9382 303.342 42.0129 303.342C41.1009 303.342 40.3915 303.089 39.8849 302.582C39.4035 302.075 39.1629 301.353 39.1629 300.416V292.056C39.1629 290.764 38.9222 289.839 38.4409 289.282C37.9595 288.699 37.2502 288.408 36.3129 288.408C35.0969 288.408 34.1215 288.788 33.3869 289.548C32.6775 290.308 32.3229 291.321 32.3229 292.588V300.416C32.3229 302.367 31.3729 303.342 29.4729 303.342ZM55.4925 303.418C54.0991 303.418 52.8705 303.152 51.8065 302.62C50.7425 302.088 49.8938 301.366 49.2605 300.454C48.6525 299.542 48.3485 298.516 48.3485 297.376C48.3485 296.033 48.7031 294.957 49.4125 294.146C50.1218 293.335 51.2745 292.765 52.8705 292.436C54.4665 292.081 56.5818 291.904 59.2165 291.904H60.5845V291.258C60.5845 290.143 60.3311 289.358 59.8245 288.902C59.3178 288.421 58.4565 288.18 57.2405 288.18C56.5565 288.18 55.8091 288.269 54.9985 288.446C54.1878 288.598 53.3138 288.864 52.3765 289.244C51.6671 289.548 51.0718 289.573 50.5905 289.32C50.1091 289.041 49.7925 288.636 49.6405 288.104C49.4885 287.547 49.5265 286.989 49.7545 286.432C50.0078 285.875 50.4891 285.469 51.1985 285.216C52.3891 284.76 53.5038 284.443 54.5425 284.266C55.6065 284.063 56.5818 283.962 57.4685 283.962C60.3565 283.962 62.5098 284.621 63.9285 285.938C65.3471 287.23 66.0565 289.244 66.0565 291.98V300.416C66.0565 302.367 65.1698 303.342 63.3965 303.342C61.5978 303.342 60.6985 302.367 60.6985 300.416V300.188C60.3185 301.176 59.6725 301.961 58.7605 302.544C57.8738 303.127 56.7845 303.418 55.4925 303.418ZM56.7845 299.58C57.8485 299.58 58.7478 299.213 59.4825 298.478C60.2171 297.743 60.5845 296.793 60.5845 295.628V294.868H59.2545C57.3038 294.868 55.9231 295.045 55.1125 295.4C54.3018 295.729 53.8965 296.312 53.8965 297.148C53.8965 297.857 54.1371 298.44 54.6185 298.896C55.1251 299.352 55.8471 299.58 56.7845 299.58ZM73.2248 303.342C71.2995 303.342 70.3368 302.367 70.3368 300.416V286.926C70.3368 285.001 71.2741 284.038 73.1488 284.038C75.0235 284.038 75.9608 285.001 75.9608 286.926V287.078C76.5941 286.065 77.4428 285.292 78.5068 284.76C79.5708 284.228 80.7615 283.962 82.0788 283.962C84.2828 283.962 85.9295 284.608 87.0188 285.9C88.1081 287.167 88.6528 289.13 88.6528 291.79V300.416C88.6528 302.367 87.6901 303.342 85.7648 303.342C84.8528 303.342 84.1435 303.089 83.6368 302.582C83.1555 302.075 82.9148 301.353 82.9148 300.416V292.056C82.9148 290.764 82.6741 289.839 82.1928 289.282C81.7115 288.699 81.0021 288.408 80.0648 288.408C78.8488 288.408 77.8735 288.788 77.1388 289.548C76.4295 290.308 76.0748 291.321 76.0748 292.588V300.416C76.0748 302.367 75.1248 303.342 73.2248 303.342ZM102.018 303.418C99.9918 303.418 98.2184 303.025 96.6984 302.24C95.2038 301.429 94.0511 300.289 93.2404 298.82C92.4298 297.351 92.0244 295.615 92.0244 293.614C92.0244 291.613 92.4298 289.89 93.2404 288.446C94.0511 287.002 95.2038 285.9 96.6984 285.14C98.2184 284.355 99.9918 283.962 102.018 283.962C102.804 283.962 103.64 284.063 104.526 284.266C105.438 284.443 106.312 284.76 107.148 285.216C107.782 285.52 108.174 285.951 108.326 286.508C108.478 287.04 108.44 287.572 108.212 288.104C108.01 288.636 107.668 289.029 107.186 289.282C106.73 289.51 106.186 289.459 105.552 289.13C104.539 288.598 103.551 288.332 102.588 288.332C101.094 288.332 99.9284 288.801 99.0924 289.738C98.2818 290.65 97.8764 291.955 97.8764 293.652C97.8764 295.324 98.2818 296.641 99.0924 297.604C99.9284 298.541 101.094 299.01 102.588 299.01C103.044 299.01 103.526 298.959 104.032 298.858C104.539 298.731 105.046 298.529 105.552 298.25C106.186 297.921 106.73 297.883 107.186 298.136C107.668 298.389 107.997 298.782 108.174 299.314C108.352 299.821 108.364 300.353 108.212 300.91C108.06 301.467 107.68 301.898 107.072 302.202C106.211 302.633 105.35 302.937 104.488 303.114C103.627 303.317 102.804 303.418 102.018 303.418ZM101.6 310.486C101.094 310.486 100.574 310.448 100.042 310.372C99.5104 310.321 99.0164 310.22 98.5604 310.068C98.1044 309.941 97.8004 309.713 97.6484 309.384C97.4964 309.055 97.4584 308.725 97.5344 308.396C97.6104 308.067 97.7878 307.813 98.0664 307.636C98.3704 307.459 98.7504 307.446 99.2064 307.598C99.7891 307.801 100.41 307.902 101.068 307.902C102.386 307.902 103.044 307.573 103.044 306.914C103.044 306.407 102.576 306.154 101.638 306.154C101.461 306.154 101.284 306.154 101.106 306.154C100.954 306.179 100.777 306.205 100.574 306.23C100.22 306.331 99.9284 306.281 99.7004 306.078C99.4978 305.875 99.4344 305.533 99.5104 305.052L99.9284 302.24H102.816L102.436 304.292C102.512 304.292 102.588 304.292 102.664 304.292C103.804 304.292 104.691 304.533 105.324 305.014C105.983 305.521 106.312 306.217 106.312 307.104C106.312 308.117 105.869 308.928 104.982 309.536C104.121 310.169 102.994 310.486 101.6 310.486ZM117.317 303.418C115.923 303.418 114.695 303.152 113.631 302.62C112.567 302.088 111.718 301.366 111.085 300.454C110.477 299.542 110.173 298.516 110.173 297.376C110.173 296.033 110.527 294.957 111.237 294.146C111.946 293.335 113.099 292.765 114.695 292.436C116.291 292.081 118.406 291.904 121.041 291.904H122.409V291.258C122.409 290.143 122.155 289.358 121.649 288.902C121.142 288.421 120.281 288.18 119.065 288.18C118.381 288.18 117.633 288.269 116.823 288.446C116.012 288.598 115.138 288.864 114.201 289.244C113.491 289.548 112.896 289.573 112.415 289.32C111.933 289.041 111.617 288.636 111.465 288.104C111.313 287.547 111.351 286.989 111.579 286.432C111.832 285.875 112.313 285.469 113.023 285.216C114.213 284.76 115.328 284.443 116.367 284.266C117.431 284.063 118.406 283.962 119.293 283.962C122.181 283.962 124.334 284.621 125.753 285.938C127.171 287.23 127.881 289.244 127.881 291.98V300.416C127.881 302.367 126.994 303.342 125.221 303.342C123.422 303.342 122.523 302.367 122.523 300.416V300.188C122.143 301.176 121.497 301.961 120.585 302.544C119.698 303.127 118.609 303.418 117.317 303.418ZM118.609 299.58C119.673 299.58 120.572 299.213 121.307 298.478C122.041 297.743 122.409 296.793 122.409 295.628V294.868H121.079C119.128 294.868 117.747 295.045 116.937 295.4C116.126 295.729 115.721 296.312 115.721 297.148C115.721 297.857 115.961 298.44 116.443 298.896C116.949 299.352 117.671 299.58 118.609 299.58ZM139.305 303.418C138.19 303.418 137.038 303.317 135.847 303.114C134.682 302.911 133.618 302.569 132.655 302.088C132.022 301.759 131.604 301.341 131.401 300.834C131.224 300.327 131.224 299.833 131.401 299.352C131.578 298.871 131.895 298.516 132.351 298.288C132.807 298.035 133.339 298.035 133.947 298.288C134.986 298.719 135.936 299.023 136.797 299.2C137.684 299.377 138.532 299.466 139.343 299.466C140.407 299.466 141.192 299.301 141.699 298.972C142.206 298.617 142.459 298.161 142.459 297.604C142.459 296.717 141.813 296.16 140.521 295.932L136.531 295.21C134.935 294.931 133.719 294.361 132.883 293.5C132.047 292.639 131.629 291.511 131.629 290.118C131.629 288.851 131.984 287.762 132.693 286.85C133.402 285.938 134.378 285.229 135.619 284.722C136.86 284.215 138.292 283.962 139.913 283.962C142.142 283.962 144.118 284.393 145.841 285.254C146.424 285.533 146.778 285.925 146.905 286.432C147.057 286.939 147.032 287.433 146.829 287.914C146.626 288.395 146.297 288.763 145.841 289.016C145.385 289.244 144.84 289.219 144.207 288.94C143.371 288.56 142.611 288.294 141.927 288.142C141.243 287.965 140.597 287.876 139.989 287.876C138.849 287.876 138.026 288.066 137.519 288.446C137.012 288.801 136.759 289.257 136.759 289.814C136.759 290.701 137.354 291.258 138.545 291.486L142.535 292.208C144.182 292.487 145.436 293.044 146.297 293.88C147.158 294.691 147.589 295.805 147.589 297.224C147.589 299.175 146.829 300.695 145.309 301.784C143.789 302.873 141.788 303.418 139.305 303.418Z" fill="white"/>
<path d="M7.456 348.64C7.65867 348.64 7.81867 348.699 7.936 348.816C8.05333 348.933 8.112 349.083 8.112 349.264V359.44C8.112 359.632 8.05333 359.787 7.936 359.904C7.81867 360.021 7.65867 360.08 7.456 360.08C7.25333 360.08 7.09333 360.021 6.976 359.904C6.86933 359.787 6.816 359.632 6.816 359.44V358.576C6.58133 359.067 6.23467 359.445 5.776 359.712C5.328 359.979 4.8 360.112 4.192 360.112C3.50933 360.112 2.90667 359.941 2.384 359.6C1.86133 359.259 1.456 358.784 1.168 358.176C0.88 357.557 0.736 356.843 0.736 356.032C0.736 355.232 0.88 354.528 1.168 353.92C1.456 353.312 1.86133 352.843 2.384 352.512C2.90667 352.181 3.50933 352.016 4.192 352.016C4.8 352.016 5.328 352.149 5.776 352.416C6.23467 352.683 6.58133 353.061 6.816 353.552V349.264C6.816 349.072 6.86933 348.923 6.976 348.816C7.09333 348.699 7.25333 348.64 7.456 348.64ZM4.448 359.04C5.20533 359.04 5.78667 358.784 6.192 358.272C6.608 357.749 6.816 357.013 6.816 356.064C6.816 355.115 6.608 354.384 6.192 353.872C5.78667 353.36 5.20533 353.104 4.448 353.104C3.69067 353.104 3.09867 353.36 2.672 353.872C2.256 354.384 2.048 355.104 2.048 356.032C2.048 356.981 2.256 357.723 2.672 358.256C3.09867 358.779 3.69067 359.04 4.448 359.04ZM16.5445 358.192C16.6618 358.192 16.7632 358.24 16.8485 358.336C16.9338 358.432 16.9765 358.555 16.9765 358.704C16.9765 358.971 16.7898 359.216 16.4165 359.44C16.0325 359.664 15.6272 359.835 15.2005 359.952C14.7738 360.059 14.3578 360.112 13.9525 360.112C12.7472 360.112 11.7925 359.755 11.0885 359.04C10.3952 358.325 10.0485 357.339 10.0485 356.08C10.0485 355.28 10.2032 354.576 10.5125 353.968C10.8218 353.349 11.2538 352.869 11.8085 352.528C12.3738 352.187 13.0138 352.016 13.7285 352.016C14.7418 352.016 15.5472 352.347 16.1445 353.008C16.7418 353.669 17.0405 354.565 17.0405 355.696C17.0405 355.909 16.9978 356.064 16.9125 356.16C16.8272 356.256 16.6885 356.304 16.4965 356.304H11.3445C11.4405 358.139 12.3098 359.056 13.9525 359.056C14.3685 359.056 14.7258 359.003 15.0245 358.896C15.3232 358.779 15.6432 358.624 15.9845 358.432C16.2618 358.272 16.4485 358.192 16.5445 358.192ZM13.7445 353.024C13.0618 353.024 12.5125 353.237 12.0965 353.664C11.6912 354.091 11.4512 354.693 11.3765 355.472H15.9045C15.8832 354.683 15.6858 354.08 15.3125 353.664C14.9392 353.237 14.4165 353.024 13.7445 353.024ZM26.515 349.744C25.9497 349.787 25.523 349.968 25.235 350.288C24.947 350.597 24.803 351.067 24.803 351.696V352.208H26.579C26.7603 352.208 26.899 352.256 26.995 352.352C27.091 352.448 27.139 352.576 27.139 352.736C27.139 352.896 27.091 353.019 26.995 353.104C26.899 353.189 26.7603 353.232 26.579 353.232H24.803V359.44C24.803 359.643 24.739 359.803 24.611 359.92C24.4937 360.027 24.3443 360.08 24.163 360.08C23.971 360.08 23.811 360.027 23.683 359.92C23.5657 359.803 23.507 359.643 23.507 359.44V353.232H22.435C22.2537 353.232 22.1097 353.189 22.003 353.104C21.907 353.008 21.859 352.885 21.859 352.736C21.859 352.576 21.907 352.448 22.003 352.352C22.1097 352.256 22.2537 352.208 22.435 352.208H23.507V351.92C23.507 350.96 23.747 350.208 24.227 349.664C24.707 349.109 25.395 348.8 26.291 348.736L26.707 348.704C26.9843 348.683 27.1817 348.709 27.299 348.784C27.427 348.859 27.491 348.992 27.491 349.184C27.491 349.493 27.3043 349.669 26.931 349.712L26.515 349.744ZM31.4789 360.112C30.7429 360.112 30.0922 359.947 29.5269 359.616C28.9722 359.285 28.5402 358.816 28.2309 358.208C27.9322 357.589 27.7829 356.875 27.7829 356.064C27.7829 355.253 27.9322 354.544 28.2309 353.936C28.5402 353.317 28.9722 352.843 29.5269 352.512C30.0922 352.181 30.7429 352.016 31.4789 352.016C32.2149 352.016 32.8655 352.181 33.4309 352.512C33.9962 352.843 34.4282 353.317 34.7269 353.936C35.0362 354.544 35.1909 355.253 35.1909 356.064C35.1909 356.875 35.0362 357.589 34.7269 358.208C34.4282 358.816 33.9962 359.285 33.4309 359.616C32.8655 359.947 32.2149 360.112 31.4789 360.112ZM31.4789 359.04C32.2469 359.04 32.8335 358.789 33.2389 358.288C33.6549 357.776 33.8629 357.035 33.8629 356.064C33.8629 355.115 33.6549 354.384 33.2389 353.872C32.8229 353.349 32.2362 353.088 31.4789 353.088C30.7215 353.088 30.1349 353.349 29.7189 353.872C29.3029 354.384 29.0949 355.115 29.0949 356.064C29.0949 357.024 29.2975 357.76 29.7029 358.272C30.1189 358.784 30.7109 359.04 31.4789 359.04ZM40.9779 352.048C41.4259 352.016 41.6499 352.197 41.6499 352.592C41.6499 352.763 41.6019 352.901 41.5059 353.008C41.4099 353.104 41.2445 353.163 41.0099 353.184L40.5299 353.232C39.8152 353.296 39.2819 353.552 38.9299 354C38.5885 354.437 38.4179 354.955 38.4179 355.552V359.44C38.4179 359.653 38.3592 359.813 38.2419 359.92C38.1245 360.027 37.9699 360.08 37.7779 360.08C37.5859 360.08 37.4259 360.027 37.2979 359.92C37.1805 359.803 37.1219 359.643 37.1219 359.44V352.688C37.1219 352.485 37.1859 352.331 37.3139 352.224C37.4419 352.107 37.5965 352.048 37.7779 352.048C37.9485 352.048 38.0925 352.107 38.2099 352.224C38.3272 352.331 38.3859 352.48 38.3859 352.672V353.568C38.6099 353.099 38.9245 352.741 39.3299 352.496C39.7459 352.251 40.2205 352.107 40.7539 352.064L40.9779 352.048ZM51.4345 352.016C53.1625 352.016 54.0265 353.045 54.0265 355.104V359.44C54.0265 359.643 53.9678 359.803 53.8505 359.92C53.7332 360.027 53.5785 360.08 53.3865 360.08C53.1945 360.08 53.0345 360.027 52.9065 359.92C52.7892 359.803 52.7305 359.643 52.7305 359.44V355.136C52.7305 354.421 52.6025 353.904 52.3465 353.584C52.0905 353.264 51.6905 353.104 51.1465 353.104C50.4958 353.104 49.9838 353.323 49.6105 353.76C49.2372 354.197 49.0505 354.789 49.0505 355.536V359.44C49.0505 359.643 48.9865 359.803 48.8585 359.92C48.7412 360.027 48.5865 360.08 48.3945 360.08C48.2025 360.08 48.0478 360.027 47.9305 359.92C47.8132 359.803 47.7545 359.643 47.7545 359.44V355.136C47.7545 354.421 47.6265 353.904 47.3705 353.584C47.1145 353.264 46.7092 353.104 46.1545 353.104C45.5145 353.104 45.0025 353.323 44.6185 353.76C44.2452 354.197 44.0585 354.789 44.0585 355.536V359.44C44.0585 359.643 43.9998 359.803 43.8825 359.92C43.7652 360.027 43.6105 360.08 43.4185 360.08C43.2265 360.08 43.0665 360.027 42.9385 359.92C42.8212 359.803 42.7625 359.643 42.7625 359.44V352.688C42.7625 352.496 42.8212 352.341 42.9385 352.224C43.0665 352.107 43.2265 352.048 43.4185 352.048C43.5998 352.048 43.7492 352.107 43.8665 352.224C43.9838 352.331 44.0425 352.48 44.0425 352.672V353.44C44.2772 352.981 44.6025 352.629 45.0185 352.384C45.4345 352.139 45.9145 352.016 46.4585 352.016C47.6745 352.016 48.4692 352.528 48.8425 353.552C49.0665 353.083 49.4078 352.709 49.8665 352.432C50.3252 352.155 50.8478 352.016 51.4345 352.016ZM59.5715 352.016C61.5235 352.016 62.4995 353.04 62.4995 355.088V359.44C62.4995 359.632 62.4408 359.787 62.3235 359.904C62.2168 360.021 62.0675 360.08 61.8755 360.08C61.6835 360.08 61.5288 360.021 61.4115 359.904C61.2942 359.787 61.2355 359.632 61.2355 359.44V358.672C61.0328 359.131 60.7235 359.488 60.3075 359.744C59.8915 359.989 59.4115 360.112 58.8675 360.112C58.3662 360.112 57.9022 360.011 57.4755 359.808C57.0595 359.605 56.7288 359.323 56.4835 358.96C56.2382 358.597 56.1155 358.197 56.1155 357.76C56.1155 357.173 56.2648 356.72 56.5635 356.4C56.8622 356.069 57.3528 355.835 58.0355 355.696C58.7182 355.547 59.6675 355.472 60.8835 355.472H61.2355V354.944C61.2355 354.304 61.1022 353.835 60.8355 353.536C60.5795 353.237 60.1582 353.088 59.5715 353.088C58.8462 353.088 58.1102 353.285 57.3635 353.68C57.0755 353.861 56.8728 353.952 56.7555 353.952C56.6275 353.952 56.5208 353.904 56.4355 353.808C56.3502 353.712 56.3075 353.589 56.3075 353.44C56.3075 353.291 56.3502 353.163 56.4355 353.056C56.5315 352.939 56.6808 352.821 56.8835 352.704C57.2568 352.491 57.6782 352.325 58.1475 352.208C58.6275 352.08 59.1022 352.016 59.5715 352.016ZM59.0435 359.088C59.6835 359.088 60.2062 358.875 60.6115 358.448C61.0275 358.011 61.2355 357.451 61.2355 356.768V356.304H60.9475C60.0088 356.304 59.2942 356.347 58.8035 356.432C58.3128 356.507 57.9608 356.64 57.7475 356.832C57.5448 357.013 57.4435 357.285 57.4435 357.648C57.4435 358.064 57.5928 358.411 57.8915 358.688C58.2008 358.955 58.5848 359.088 59.0435 359.088ZM72.8529 352.048C73.3009 352.016 73.5249 352.197 73.5249 352.592C73.5249 352.763 73.4769 352.901 73.3809 353.008C73.2849 353.104 73.1195 353.163 72.8849 353.184L72.4049 353.232C71.6902 353.296 71.1569 353.552 70.8049 354C70.4635 354.437 70.2929 354.955 70.2929 355.552V359.44C70.2929 359.653 70.2342 359.813 70.1169 359.92C69.9995 360.027 69.8449 360.08 69.6529 360.08C69.4609 360.08 69.3009 360.027 69.1729 359.92C69.0555 359.803 68.9969 359.643 68.9969 359.44V352.688C68.9969 352.485 69.0609 352.331 69.1889 352.224C69.3169 352.107 69.4715 352.048 69.6529 352.048C69.8235 352.048 69.9675 352.107 70.0849 352.224C70.2022 352.331 70.2609 352.48 70.2609 352.672V353.568C70.4849 353.099 70.7995 352.741 71.2049 352.496C71.6209 352.251 72.0955 352.107 72.6289 352.064L72.8529 352.048ZM77.759 352.016C79.711 352.016 80.687 353.04 80.687 355.088V359.44C80.687 359.632 80.6283 359.787 80.511 359.904C80.4043 360.021 80.255 360.08 80.063 360.08C79.871 360.08 79.7163 360.021 79.599 359.904C79.4817 359.787 79.423 359.632 79.423 359.44V358.672C79.2203 359.131 78.911 359.488 78.495 359.744C78.079 359.989 77.599 360.112 77.055 360.112C76.5537 360.112 76.0897 360.011 75.663 359.808C75.247 359.605 74.9163 359.323 74.671 358.96C74.4257 358.597 74.303 358.197 74.303 357.76C74.303 357.173 74.4523 356.72 74.751 356.4C75.0497 356.069 75.5403 355.835 76.223 355.696C76.9057 355.547 77.855 355.472 79.071 355.472H79.423V354.944C79.423 354.304 79.2897 353.835 79.023 353.536C78.767 353.237 78.3457 353.088 77.759 353.088C77.0337 353.088 76.2977 353.285 75.551 353.68C75.263 353.861 75.0603 353.952 74.943 353.952C74.815 353.952 74.7083 353.904 74.623 353.808C74.5377 353.712 74.495 353.589 74.495 353.44C74.495 353.291 74.5377 353.163 74.623 353.056C74.719 352.939 74.8683 352.821 75.071 352.704C75.4443 352.491 75.8657 352.325 76.335 352.208C76.815 352.08 77.2897 352.016 77.759 352.016ZM77.231 359.088C77.871 359.088 78.3937 358.875 78.799 358.448C79.215 358.011 79.423 357.451 79.423 356.768V356.304H79.135C78.1963 356.304 77.4817 356.347 76.991 356.432C76.5003 356.507 76.1483 356.64 75.935 356.832C75.7323 357.013 75.631 357.285 75.631 357.648C75.631 358.064 75.7803 358.411 76.079 358.688C76.3883 358.955 76.7723 359.088 77.231 359.088ZM78.047 351.168C77.9617 351.232 77.8763 351.264 77.791 351.264C77.6843 351.264 77.5937 351.232 77.519 351.168C77.4443 351.093 77.407 351.008 77.407 350.912C77.407 350.827 77.439 350.747 77.503 350.672L79.359 348.24C79.551 347.995 79.7697 347.872 80.015 347.872C80.1857 347.872 80.3297 347.931 80.447 348.048C80.5643 348.155 80.623 348.293 80.623 348.464C80.623 348.688 80.5163 348.891 80.303 349.072L78.047 351.168ZM86.9794 352.016C87.662 352.016 88.2647 352.187 88.7874 352.528C89.31 352.869 89.7154 353.349 90.0034 353.968C90.2914 354.576 90.4354 355.285 90.4354 356.096C90.4354 356.907 90.2914 357.616 90.0034 358.224C89.7154 358.821 89.31 359.285 88.7874 359.616C88.2754 359.947 87.6727 360.112 86.9794 360.112C86.3714 360.112 85.838 359.979 85.3794 359.712C84.9314 359.445 84.59 359.067 84.3554 358.576V362.336C84.3554 362.528 84.2967 362.677 84.1794 362.784C84.0727 362.901 83.918 362.96 83.7154 362.96C83.5127 362.96 83.3527 362.901 83.2354 362.784C83.118 362.667 83.0594 362.517 83.0594 362.336V352.688C83.0594 352.496 83.118 352.341 83.2354 352.224C83.3527 352.107 83.5127 352.048 83.7154 352.048C83.918 352.048 84.0727 352.107 84.1794 352.224C84.2967 352.341 84.3554 352.496 84.3554 352.688V353.552C84.59 353.061 84.9314 352.683 85.3794 352.416C85.838 352.149 86.3714 352.016 86.9794 352.016ZM86.7234 359.04C87.4807 359.04 88.0674 358.784 88.4834 358.272C88.8994 357.76 89.1074 357.035 89.1074 356.096C89.1074 355.157 88.8994 354.427 88.4834 353.904C88.0674 353.371 87.4807 353.104 86.7234 353.104C85.966 353.104 85.3794 353.36 84.9634 353.872C84.558 354.384 84.3554 355.115 84.3554 356.064C84.3554 357.013 84.558 357.749 84.9634 358.272C85.3794 358.784 85.966 359.04 86.7234 359.04ZM93.0279 360.08C92.8359 360.08 92.6759 360.027 92.5479 359.92C92.4305 359.803 92.3719 359.643 92.3719 359.44V352.688C92.3719 352.485 92.4305 352.331 92.5479 352.224C92.6759 352.107 92.8359 352.048 93.0279 352.048C93.2199 352.048 93.3745 352.107 93.4919 352.224C93.6092 352.331 93.6679 352.485 93.6679 352.688V359.44C93.6679 359.653 93.6092 359.813 93.4919 359.92C93.3745 360.027 93.2199 360.08 93.0279 360.08ZM93.0279 350.368C92.7719 350.368 92.5639 350.293 92.4039 350.144C92.2439 349.995 92.1639 349.797 92.1639 349.552C92.1639 349.317 92.2439 349.125 92.4039 348.976C92.5639 348.827 92.7719 348.752 93.0279 348.752C93.2839 348.752 93.4919 348.827 93.6519 348.976C93.8119 349.125 93.8919 349.317 93.8919 349.552C93.8919 349.797 93.8119 349.995 93.6519 350.144C93.4919 350.293 93.2839 350.368 93.0279 350.368ZM102.347 348.64C102.549 348.64 102.709 348.699 102.827 348.816C102.944 348.933 103.003 349.083 103.003 349.264V359.44C103.003 359.632 102.944 359.787 102.827 359.904C102.709 360.021 102.549 360.08 102.347 360.08C102.144 360.08 101.984 360.021 101.867 359.904C101.76 359.787 101.707 359.632 101.707 359.44V358.576C101.472 359.067 101.125 359.445 100.667 359.712C100.219 359.979 99.6906 360.112 99.0826 360.112C98.4 360.112 97.7973 359.941 97.2746 359.6C96.752 359.259 96.3466 358.784 96.0586 358.176C95.7706 357.557 95.6266 356.843 95.6266 356.032C95.6266 355.232 95.7706 354.528 96.0586 353.92C96.3466 353.312 96.752 352.843 97.2746 352.512C97.7973 352.181 98.4 352.016 99.0826 352.016C99.6906 352.016 100.219 352.149 100.667 352.416C101.125 352.683 101.472 353.061 101.707 353.552V349.264C101.707 349.072 101.76 348.923 101.867 348.816C101.984 348.699 102.144 348.64 102.347 348.64ZM99.3386 359.04C100.096 359.04 100.677 358.784 101.083 358.272C101.499 357.749 101.707 357.013 101.707 356.064C101.707 355.115 101.499 354.384 101.083 353.872C100.677 353.36 100.096 353.104 99.3386 353.104C98.5813 353.104 97.9893 353.36 97.5626 353.872C97.1466 354.384 96.9386 355.104 96.9386 356.032C96.9386 356.981 97.1466 357.723 97.5626 358.256C97.9893 358.779 98.5813 359.04 99.3386 359.04ZM108.587 352.016C110.539 352.016 111.515 353.04 111.515 355.088V359.44C111.515 359.632 111.456 359.787 111.339 359.904C111.232 360.021 111.083 360.08 110.891 360.08C110.699 360.08 110.544 360.021 110.427 359.904C110.31 359.787 110.251 359.632 110.251 359.44V358.672C110.048 359.131 109.739 359.488 109.323 359.744C108.907 359.989 108.427 360.112 107.883 360.112C107.382 360.112 106.918 360.011 106.491 359.808C106.075 359.605 105.744 359.323 105.499 358.96C105.254 358.597 105.131 358.197 105.131 357.76C105.131 357.173 105.28 356.72 105.579 356.4C105.878 356.069 106.368 355.835 107.051 355.696C107.734 355.547 108.683 355.472 109.899 355.472H110.251V354.944C110.251 354.304 110.118 353.835 109.851 353.536C109.595 353.237 109.174 353.088 108.587 353.088C107.862 353.088 107.126 353.285 106.379 353.68C106.091 353.861 105.888 353.952 105.771 353.952C105.643 353.952 105.536 353.904 105.451 353.808C105.366 353.712 105.323 353.589 105.323 353.44C105.323 353.291 105.366 353.163 105.451 353.056C105.547 352.939 105.696 352.821 105.899 352.704C106.272 352.491 106.694 352.325 107.163 352.208C107.643 352.08 108.118 352.016 108.587 352.016ZM108.059 359.088C108.699 359.088 109.222 358.875 109.627 358.448C110.043 358.011 110.251 357.451 110.251 356.768V356.304H109.963C109.024 356.304 108.31 356.347 107.819 356.432C107.328 356.507 106.976 356.64 106.763 356.832C106.56 357.013 106.459 357.285 106.459 357.648C106.459 358.064 106.608 358.411 106.907 358.688C107.216 358.955 107.6 359.088 108.059 359.088ZM124.045 358.192C124.162 358.192 124.263 358.24 124.349 358.336C124.434 358.432 124.477 358.555 124.477 358.704C124.477 358.971 124.29 359.216 123.917 359.44C123.533 359.664 123.127 359.835 122.701 359.952C122.274 360.059 121.858 360.112 121.453 360.112C120.247 360.112 119.293 359.755 118.589 359.04C117.895 358.325 117.549 357.339 117.549 356.08C117.549 355.28 117.703 354.576 118.013 353.968C118.322 353.349 118.754 352.869 119.309 352.528C119.874 352.187 120.514 352.016 121.229 352.016C122.242 352.016 123.047 352.347 123.645 353.008C124.242 353.669 124.541 354.565 124.541 355.696C124.541 355.909 124.498 356.064 124.413 356.16C124.327 356.256 124.189 356.304 123.997 356.304H118.845C118.941 358.139 119.81 359.056 121.453 359.056C121.869 359.056 122.226 359.003 122.525 358.896C122.823 358.779 123.143 358.624 123.485 358.432C123.762 358.272 123.949 358.192 124.045 358.192ZM121.245 353.024C120.562 353.024 120.013 353.237 119.597 353.664C119.191 354.091 118.951 354.693 118.877 355.472H123.405C123.383 354.683 123.186 354.08 122.813 353.664C122.439 353.237 121.917 353.024 121.245 353.024ZM133.199 360.112C132.708 360.112 132.239 360.053 131.791 359.936C131.354 359.819 130.964 359.653 130.623 359.44C130.431 359.312 130.292 359.195 130.207 359.088C130.132 358.971 130.095 358.832 130.095 358.672C130.095 358.533 130.132 358.421 130.207 358.336C130.292 358.24 130.399 358.192 130.527 358.192C130.655 358.192 130.842 358.272 131.087 358.432C131.407 358.624 131.722 358.779 132.031 358.896C132.351 359.003 132.746 359.056 133.215 359.056C133.791 359.056 134.239 358.955 134.559 358.752C134.879 358.549 135.039 358.256 135.039 357.872C135.039 357.637 134.98 357.451 134.863 357.312C134.746 357.163 134.543 357.035 134.255 356.928C133.967 356.811 133.546 356.693 132.991 356.576C132.052 356.373 131.38 356.101 130.975 355.76C130.57 355.419 130.367 354.955 130.367 354.368C130.367 353.909 130.495 353.504 130.751 353.152C131.007 352.8 131.359 352.523 131.807 352.32C132.266 352.117 132.783 352.016 133.359 352.016C133.775 352.016 134.175 352.075 134.559 352.192C134.954 352.299 135.3 352.453 135.599 352.656C135.962 352.912 136.143 353.179 136.143 353.456C136.143 353.595 136.1 353.712 136.015 353.808C135.93 353.904 135.828 353.952 135.711 353.952C135.583 353.952 135.391 353.861 135.135 353.68C134.836 353.488 134.554 353.339 134.287 353.232C134.02 353.125 133.69 353.072 133.295 353.072C132.794 353.072 132.388 353.184 132.079 353.408C131.78 353.632 131.631 353.931 131.631 354.304C131.631 354.539 131.684 354.731 131.791 354.88C131.908 355.019 132.095 355.147 132.351 355.264C132.618 355.371 132.996 355.477 133.487 355.584C134.212 355.744 134.772 355.92 135.167 356.112C135.572 356.304 135.86 356.539 136.031 356.816C136.202 357.093 136.287 357.445 136.287 357.872C136.287 358.544 136.004 359.088 135.439 359.504C134.874 359.909 134.127 360.112 133.199 360.112ZM144.295 358.192C144.412 358.192 144.513 358.24 144.599 358.336C144.684 358.432 144.727 358.555 144.727 358.704C144.727 358.971 144.54 359.216 144.167 359.44C143.783 359.664 143.377 359.835 142.951 359.952C142.524 360.059 142.108 360.112 141.703 360.112C140.497 360.112 139.543 359.755 138.839 359.04C138.145 358.325 137.799 357.339 137.799 356.08C137.799 355.28 137.953 354.576 138.263 353.968C138.572 353.349 139.004 352.869 139.559 352.528C140.124 352.187 140.764 352.016 141.479 352.016C142.492 352.016 143.297 352.347 143.895 353.008C144.492 353.669 144.791 354.565 144.791 355.696C144.791 355.909 144.748 356.064 144.663 356.16C144.577 356.256 144.439 356.304 144.247 356.304H139.095C139.191 358.139 140.06 359.056 141.703 359.056C142.119 359.056 142.476 359.003 142.775 358.896C143.073 358.779 143.393 358.624 143.735 358.432C144.012 358.272 144.199 358.192 144.295 358.192ZM141.495 353.024C140.812 353.024 140.263 353.237 139.847 353.664C139.441 354.091 139.201 354.693 139.127 355.472H143.655C143.633 354.683 143.436 354.08 143.063 353.664C142.689 353.237 142.167 353.024 141.495 353.024ZM153.02 352.048C153.223 352.048 153.383 352.107 153.5 352.224C153.617 352.341 153.676 352.496 153.676 352.688V359.472C153.676 360.635 153.377 361.509 152.78 362.096C152.183 362.693 151.297 362.992 150.124 362.992C148.983 362.992 148.033 362.768 147.276 362.32C146.892 362.107 146.7 361.861 146.7 361.584C146.7 361.435 146.737 361.312 146.812 361.216C146.897 361.12 147.004 361.072 147.132 361.072C147.239 361.072 147.431 361.147 147.708 361.296C148.081 361.488 148.449 361.643 148.812 361.76C149.175 361.877 149.607 361.936 150.108 361.936C150.865 361.936 151.436 361.733 151.82 361.328C152.204 360.933 152.396 360.352 152.396 359.584V358.208C152.172 358.709 151.825 359.093 151.356 359.36C150.897 359.627 150.353 359.76 149.724 359.76C149.041 359.76 148.433 359.6 147.9 359.28C147.377 358.96 146.967 358.507 146.668 357.92C146.38 357.333 146.236 356.656 146.236 355.888C146.236 355.12 146.38 354.443 146.668 353.856C146.967 353.269 147.377 352.816 147.9 352.496C148.433 352.176 149.041 352.016 149.724 352.016C150.343 352.016 150.881 352.149 151.34 352.416C151.799 352.683 152.145 353.061 152.38 353.552V352.688C152.38 352.496 152.433 352.341 152.54 352.224C152.657 352.107 152.817 352.048 153.02 352.048ZM149.98 358.688C150.727 358.688 151.313 358.443 151.74 357.952C152.167 357.451 152.38 356.763 152.38 355.888C152.38 355.024 152.167 354.347 151.74 353.856C151.324 353.355 150.737 353.104 149.98 353.104C149.223 353.104 148.625 353.355 148.188 353.856C147.761 354.347 147.548 355.024 147.548 355.888C147.548 356.763 147.761 357.451 148.188 357.952C148.625 358.443 149.223 358.688 149.98 358.688ZM161.995 352.048C162.198 352.048 162.352 352.107 162.459 352.224C162.576 352.341 162.635 352.496 162.635 352.688V359.456C162.635 359.637 162.576 359.787 162.459 359.904C162.352 360.021 162.198 360.08 161.995 360.08C161.803 360.08 161.648 360.027 161.531 359.92C161.424 359.803 161.371 359.653 161.371 359.472V358.672C161.126 359.141 160.779 359.499 160.331 359.744C159.894 359.989 159.398 360.112 158.843 360.112C157.915 360.112 157.216 359.856 156.747 359.344C156.278 358.821 156.043 358.053 156.043 357.04V352.688C156.043 352.496 156.102 352.341 156.219 352.224C156.336 352.107 156.496 352.048 156.699 352.048C156.902 352.048 157.056 352.107 157.163 352.224C157.28 352.341 157.339 352.496 157.339 352.688V357.008C157.339 357.701 157.478 358.213 157.755 358.544C158.032 358.864 158.47 359.024 159.067 359.024C159.75 359.024 160.299 358.805 160.715 358.368C161.131 357.92 161.339 357.333 161.339 356.608V352.688C161.339 352.496 161.398 352.341 161.515 352.224C161.632 352.107 161.792 352.048 161.995 352.048ZM168.9 352.048C169.348 352.016 169.572 352.197 169.572 352.592C169.572 352.763 169.524 352.901 169.428 353.008C169.332 353.104 169.166 353.163 168.932 353.184L168.452 353.232C167.737 353.296 167.204 353.552 166.852 354C166.51 354.437 166.34 354.955 166.34 355.552V359.44C166.34 359.653 166.281 359.813 166.164 359.92C166.046 360.027 165.892 360.08 165.7 360.08C165.508 360.08 165.348 360.027 165.22 359.92C165.102 359.803 165.044 359.643 165.044 359.44V352.688C165.044 352.485 165.108 352.331 165.236 352.224C165.364 352.107 165.518 352.048 165.7 352.048C165.87 352.048 166.014 352.107 166.132 352.224C166.249 352.331 166.308 352.48 166.308 352.672V353.568C166.532 353.099 166.846 352.741 167.252 352.496C167.668 352.251 168.142 352.107 168.676 352.064L168.9 352.048ZM173.806 352.016C175.758 352.016 176.734 353.04 176.734 355.088V359.44C176.734 359.632 176.675 359.787 176.558 359.904C176.451 360.021 176.302 360.08 176.11 360.08C175.918 360.08 175.763 360.021 175.646 359.904C175.529 359.787 175.47 359.632 175.47 359.44V358.672C175.267 359.131 174.958 359.488 174.542 359.744C174.126 359.989 173.646 360.112 173.102 360.112C172.601 360.112 172.137 360.011 171.71 359.808C171.294 359.605 170.963 359.323 170.718 358.96C170.473 358.597 170.35 358.197 170.35 357.76C170.35 357.173 170.499 356.72 170.798 356.4C171.097 356.069 171.587 355.835 172.27 355.696C172.953 355.547 173.902 355.472 175.118 355.472H175.47V354.944C175.47 354.304 175.337 353.835 175.07 353.536C174.814 353.237 174.393 353.088 173.806 353.088C173.081 353.088 172.345 353.285 171.598 353.68C171.31 353.861 171.107 353.952 170.99 353.952C170.862 353.952 170.755 353.904 170.67 353.808C170.585 353.712 170.542 353.589 170.542 353.44C170.542 353.291 170.585 353.163 170.67 353.056C170.766 352.939 170.915 352.821 171.118 352.704C171.491 352.491 171.913 352.325 172.382 352.208C172.862 352.08 173.337 352.016 173.806 352.016ZM173.278 359.088C173.918 359.088 174.441 358.875 174.846 358.448C175.262 358.011 175.47 357.451 175.47 356.768V356.304H175.182C174.243 356.304 173.529 356.347 173.038 356.432C172.547 356.507 172.195 356.64 171.982 356.832C171.779 357.013 171.678 357.285 171.678 357.648C171.678 358.064 171.827 358.411 172.126 358.688C172.435 358.955 172.819 359.088 173.278 359.088Z" fill="white"/>
<path d="M0 404C0 399.582 3.58172 396 8 396H233C237.418 396 241 399.582 241 404V436C241 440.418 237.418 444 233 444H8C3.58172 444 0 440.418 0 436V404Z" fill="#FD377E"/>
<path d="M100.034 413.864V425.5H98.2784V413.864H100.034ZM104.153 420.318V425.5H102.455V416.773H104.085V418.193H104.193C104.394 417.731 104.708 417.36 105.136 417.08C105.568 416.799 106.112 416.659 106.767 416.659C107.362 416.659 107.883 416.784 108.33 417.034C108.777 417.28 109.123 417.648 109.369 418.136C109.616 418.625 109.739 419.229 109.739 419.949V425.5H108.04V420.153C108.04 419.521 107.875 419.027 107.545 418.67C107.216 418.311 106.763 418.131 106.188 418.131C105.794 418.131 105.443 418.216 105.136 418.386C104.833 418.557 104.593 418.807 104.415 419.136C104.241 419.462 104.153 419.856 104.153 420.318ZM112.017 425.5V416.773H113.716V425.5H112.017ZM112.875 415.426C112.58 415.426 112.326 415.328 112.114 415.131C111.905 414.93 111.801 414.691 111.801 414.415C111.801 414.134 111.905 413.896 112.114 413.699C112.326 413.498 112.58 413.398 112.875 413.398C113.17 413.398 113.422 413.498 113.631 413.699C113.843 413.896 113.949 414.134 113.949 414.415C113.949 414.691 113.843 414.93 113.631 415.131C113.422 415.328 113.17 415.426 112.875 415.426ZM119.678 425.676C118.833 425.676 118.106 425.485 117.496 425.102C116.89 424.716 116.424 424.184 116.098 423.506C115.772 422.828 115.609 422.051 115.609 421.176C115.609 420.29 115.776 419.508 116.109 418.83C116.443 418.148 116.912 417.616 117.518 417.233C118.125 416.85 118.839 416.659 119.661 416.659C120.323 416.659 120.914 416.782 121.433 417.028C121.952 417.271 122.371 417.612 122.689 418.051C123.011 418.491 123.202 419.004 123.263 419.591H121.609C121.518 419.182 121.31 418.83 120.984 418.534C120.662 418.239 120.231 418.091 119.689 418.091C119.215 418.091 118.801 418.216 118.445 418.466C118.092 418.712 117.818 419.064 117.621 419.523C117.424 419.977 117.325 420.515 117.325 421.136C117.325 421.773 117.422 422.322 117.615 422.784C117.808 423.246 118.081 423.604 118.433 423.858C118.789 424.112 119.208 424.239 119.689 424.239C120.011 424.239 120.303 424.18 120.564 424.062C120.829 423.941 121.051 423.769 121.229 423.545C121.411 423.322 121.537 423.053 121.609 422.739H123.263C123.202 423.303 123.018 423.807 122.712 424.25C122.405 424.693 121.994 425.042 121.479 425.295C120.967 425.549 120.367 425.676 119.678 425.676ZM125.08 425.5V416.773H126.778V425.5H125.08ZM125.938 415.426C125.642 415.426 125.388 415.328 125.176 415.131C124.968 414.93 124.864 414.691 124.864 414.415C124.864 414.134 124.968 413.896 125.176 413.699C125.388 413.498 125.642 413.398 125.938 413.398C126.233 413.398 126.485 413.498 126.693 413.699C126.905 413.896 127.011 414.134 127.011 414.415C127.011 414.691 126.905 414.93 126.693 415.131C126.485 415.328 126.233 415.426 125.938 415.426ZM131.604 425.693C131.051 425.693 130.551 425.591 130.104 425.386C129.657 425.178 129.303 424.877 129.041 424.483C128.784 424.089 128.655 423.606 128.655 423.034C128.655 422.542 128.75 422.136 128.939 421.818C129.128 421.5 129.384 421.248 129.706 421.062C130.028 420.877 130.388 420.737 130.786 420.642C131.183 420.547 131.589 420.475 132.001 420.426C132.524 420.366 132.948 420.316 133.274 420.278C133.6 420.237 133.837 420.17 133.984 420.08C134.132 419.989 134.206 419.841 134.206 419.636V419.597C134.206 419.1 134.066 418.716 133.786 418.443C133.509 418.17 133.096 418.034 132.547 418.034C131.975 418.034 131.524 418.161 131.195 418.415C130.869 418.665 130.643 418.943 130.518 419.25L128.922 418.886C129.111 418.356 129.388 417.928 129.751 417.602C130.119 417.273 130.541 417.034 131.018 416.886C131.496 416.735 131.998 416.659 132.524 416.659C132.873 416.659 133.242 416.701 133.632 416.784C134.026 416.864 134.393 417.011 134.734 417.227C135.079 417.443 135.361 417.752 135.581 418.153C135.801 418.551 135.911 419.068 135.911 419.705V425.5H134.251V424.307H134.183C134.073 424.527 133.909 424.742 133.689 424.955C133.469 425.167 133.187 425.343 132.842 425.483C132.498 425.623 132.085 425.693 131.604 425.693ZM131.973 424.33C132.443 424.33 132.844 424.237 133.178 424.051C133.515 423.866 133.77 423.623 133.945 423.324C134.123 423.021 134.212 422.697 134.212 422.352V421.227C134.151 421.288 134.034 421.345 133.859 421.398C133.689 421.447 133.494 421.491 133.274 421.528C133.054 421.562 132.84 421.595 132.632 421.625C132.424 421.652 132.25 421.674 132.109 421.693C131.78 421.735 131.479 421.805 131.206 421.903C130.937 422.002 130.721 422.144 130.558 422.33C130.399 422.511 130.32 422.754 130.32 423.057C130.32 423.477 130.475 423.795 130.786 424.011C131.096 424.223 131.492 424.33 131.973 424.33ZM138.173 425.5V416.773H139.815V418.159H139.906C140.065 417.689 140.346 417.32 140.747 417.051C141.152 416.778 141.611 416.642 142.122 416.642C142.228 416.642 142.353 416.646 142.497 416.653C142.645 416.661 142.76 416.67 142.844 416.682V418.307C142.776 418.288 142.654 418.267 142.48 418.244C142.306 418.218 142.132 418.205 141.957 418.205C141.556 418.205 141.198 418.29 140.884 418.46C140.573 418.627 140.327 418.86 140.145 419.159C139.963 419.455 139.872 419.792 139.872 420.17V425.5H138.173Z" fill="white"/>
<path d="M8 398H233V394H8V398ZM239 404V436H243V404H239ZM233 442H8V446H233V442ZM2 436V404H-2V436H2ZM8 442C4.68629 442 2 439.314 2 436H-2C-2 441.523 2.47715 446 8 446V442ZM239 436C239 439.314 236.314 442 233 442V446C238.523 446 243 441.523 243 436H239ZM233 398C236.314 398 239 400.686 239 404H243C243 398.477 238.523 394 233 394V398ZM8 394C2.47715 394 -2 398.477 -2 404H2C2 400.686 4.68629 398 8 398V394Z" fill="#FD377E"/>
<path d="M14.092 120.858C14.7507 120.858 15.288 121.075 15.704 121.508C16.1373 121.941 16.354 122.505 16.354 123.198V137.108C16.354 137.819 16.146 138.391 15.73 138.824C15.314 139.257 14.7767 139.474 14.118 139.474C13.338 139.474 12.7487 139.214 12.35 138.694L4.446 128.84V137.108C4.446 137.819 4.24667 138.391 3.848 138.824C3.44933 139.257 2.912 139.474 2.236 139.474C1.57733 139.474 1.04 139.257 0.624 138.824C0.208 138.391 0 137.819 0 137.108V123.198C0 122.505 0.208 121.941 0.624 121.508C1.04 121.075 1.57733 120.858 2.236 120.858C2.98133 120.858 3.562 121.118 3.978 121.638L11.882 131.466V123.198C11.882 122.487 12.0813 121.924 12.48 121.508C12.896 121.075 13.4333 120.858 14.092 120.858Z" fill="url(#paint0_linear_123_980)"/>
<path d="M29.9477 126.266C30.6584 126.266 31.2217 126.457 31.6377 126.838C32.0537 127.219 32.2617 127.739 32.2617 128.398V137.394C32.2617 138.001 32.0451 138.503 31.6117 138.902C31.1784 139.283 30.6151 139.474 29.9217 139.474C29.2977 139.474 28.7864 139.309 28.3877 138.98C27.9891 138.633 27.7811 138.174 27.7637 137.602C27.3651 138.226 26.8537 138.703 26.2297 139.032C25.6231 139.361 24.9211 139.526 24.1237 139.526C22.4771 139.526 21.2551 139.075 20.4577 138.174C19.6604 137.255 19.2617 135.869 19.2617 134.014V128.398C19.2617 127.739 19.4697 127.219 19.8857 126.838C20.3017 126.457 20.8651 126.266 21.5757 126.266C22.2864 126.266 22.8497 126.457 23.2657 126.838C23.6817 127.219 23.8897 127.739 23.8897 128.398V134.118C23.8897 135.366 24.4271 135.99 25.5017 135.99C26.1257 135.99 26.6371 135.765 27.0357 135.314C27.4344 134.863 27.6337 134.274 27.6337 133.546V128.398C27.6337 127.739 27.8417 127.219 28.2577 126.838C28.6737 126.457 29.2371 126.266 29.9477 126.266Z" fill="url(#paint1_linear_123_980)"/>
<path d="M58.177 135.73C58.6277 136.163 58.853 136.666 58.853 137.238C58.853 137.81 58.6364 138.313 58.203 138.746C57.7697 139.179 57.2584 139.396 56.669 139.396C56.0277 139.396 55.4384 139.119 54.901 138.564L47.491 130.972V137.108C47.491 137.836 47.2744 138.417 46.841 138.85C46.4077 139.266 45.8184 139.474 45.073 139.474C44.345 139.474 43.7644 139.266 43.331 138.85C42.915 138.417 42.707 137.836 42.707 137.108V123.198C42.707 122.487 42.915 121.924 43.331 121.508C43.7644 121.075 44.345 120.858 45.073 120.858C45.8184 120.858 46.4077 121.075 46.841 121.508C47.2744 121.924 47.491 122.487 47.491 123.198V128.918L54.797 121.56C55.2477 121.092 55.759 120.858 56.331 120.858C56.903 120.858 57.4057 121.075 57.839 121.508C58.2724 121.924 58.489 122.418 58.489 122.99C58.489 123.562 58.2377 124.091 57.735 124.576L52.405 129.802L58.177 135.73Z" fill="url(#paint2_linear_123_980)"/>
<path d="M70.8224 135.21C71.221 135.21 71.5417 135.366 71.7844 135.678C72.0444 135.99 72.1744 136.397 72.1744 136.9C72.1744 137.593 71.8364 138.122 71.1604 138.486C70.571 138.781 69.869 139.032 69.0544 139.24C68.257 139.431 67.5204 139.526 66.8444 139.526C65.423 139.526 64.1837 139.257 63.1264 138.72C62.069 138.183 61.2544 137.411 60.6824 136.406C60.1104 135.401 59.8244 134.222 59.8244 132.87C59.8244 131.587 60.093 130.443 60.6304 129.438C61.185 128.415 61.9477 127.627 62.9184 127.072C63.9064 126.5 65.0157 126.214 66.2464 126.214C67.4424 126.214 68.491 126.474 69.3924 126.994C70.2937 127.514 70.987 128.251 71.4724 129.204C71.975 130.157 72.2264 131.275 72.2264 132.558C72.2264 132.957 72.131 133.269 71.9404 133.494C71.767 133.702 71.507 133.806 71.1604 133.806H64.2964C64.4177 134.638 64.6864 135.236 65.1024 135.6C65.5184 135.964 66.1337 136.146 66.9484 136.146C67.3817 136.146 67.7804 136.103 68.1444 136.016C68.5084 135.912 68.9157 135.773 69.3664 135.6C69.6264 135.496 69.8777 135.409 70.1204 135.34C70.3804 135.253 70.6144 135.21 70.8224 135.21ZM66.3764 129.334C65.7697 129.334 65.2844 129.533 64.9204 129.932C64.5564 130.313 64.3397 130.877 64.2704 131.622H68.3524C68.2484 130.097 67.5897 129.334 66.3764 129.334Z" fill="url(#paint3_linear_123_980)"/>
<path d="M82.9424 126.214C84.4678 126.214 85.6031 126.673 86.3484 127.592C87.0938 128.493 87.4664 129.871 87.4664 131.726V137.342C87.4664 138.001 87.2584 138.521 86.8424 138.902C86.4264 139.283 85.8631 139.474 85.1524 139.474C84.4418 139.474 83.8784 139.283 83.4624 138.902C83.0464 138.521 82.8384 138.001 82.8384 137.342V131.934C82.8384 131.171 82.6998 130.617 82.4224 130.27C82.1624 129.923 81.7638 129.75 81.2264 129.75C80.5331 129.75 79.9784 129.975 79.5624 130.426C79.1638 130.859 78.9644 131.449 78.9644 132.194V137.342C78.9644 138.001 78.7564 138.521 78.3404 138.902C77.9244 139.283 77.3611 139.474 76.6504 139.474C75.9398 139.474 75.3764 139.283 74.9604 138.902C74.5444 138.521 74.3364 138.001 74.3364 137.342V128.346C74.3364 127.739 74.5531 127.245 74.9864 126.864C75.4198 126.465 75.9831 126.266 76.6764 126.266C77.3351 126.266 77.8551 126.448 78.2364 126.812C78.6351 127.176 78.8344 127.653 78.8344 128.242C79.2851 127.583 79.8658 127.081 80.5764 126.734C81.2871 126.387 82.0758 126.214 82.9424 126.214Z" fill="url(#paint4_linear_123_980)"/>
<path d="M99.7766 135.912C101.163 135.912 101.857 136.475 101.857 137.602C101.857 138.746 101.163 139.318 99.7766 139.318H91.5866C90.98 139.318 90.486 139.127 90.1046 138.746C89.7233 138.365 89.5326 137.905 89.5326 137.368C89.5326 136.796 89.7493 136.267 90.1826 135.782L95.6426 129.932H91.4566C90.07 129.932 89.3766 129.36 89.3766 128.216C89.3766 127.089 90.07 126.526 91.4566 126.526H99.3346C99.9413 126.526 100.435 126.717 100.817 127.098C101.198 127.479 101.389 127.939 101.389 128.476C101.389 129.031 101.172 129.551 100.739 130.036L95.2526 135.912H99.7766Z" fill="url(#paint5_linear_123_980)"/>
<path d="M105.875 139.474C105.216 139.474 104.662 139.301 104.211 138.954C103.778 138.59 103.561 138.053 103.561 137.342V128.398C103.561 127.687 103.778 127.159 104.211 126.812C104.662 126.448 105.216 126.266 105.875 126.266C106.534 126.266 107.08 126.448 107.513 126.812C107.964 127.159 108.189 127.687 108.189 128.398V137.342C108.189 138.053 107.964 138.59 107.513 138.954C107.08 139.301 106.534 139.474 105.875 139.474ZM105.875 124.446C105.095 124.446 104.471 124.247 104.003 123.848C103.552 123.432 103.327 122.886 103.327 122.21C103.327 121.534 103.552 120.997 104.003 120.598C104.471 120.199 105.095 120 105.875 120C106.638 120 107.253 120.199 107.721 120.598C108.189 120.997 108.423 121.534 108.423 122.21C108.423 122.886 108.189 123.432 107.721 123.848C107.27 124.247 106.655 124.446 105.875 124.446Z" fill="url(#paint6_linear_123_980)"/>
<path d="M121.274 135.21C121.672 135.21 121.993 135.366 122.236 135.678C122.496 135.99 122.626 136.397 122.626 136.9C122.626 137.593 122.288 138.122 121.612 138.486C121.022 138.781 120.32 139.032 119.506 139.24C118.708 139.431 117.972 139.526 117.296 139.526C115.874 139.526 114.635 139.257 113.578 138.72C112.52 138.183 111.706 137.411 111.134 136.406C110.562 135.401 110.276 134.222 110.276 132.87C110.276 131.587 110.544 130.443 111.082 129.438C111.636 128.415 112.399 127.627 113.37 127.072C114.358 126.5 115.467 126.214 116.698 126.214C117.894 126.214 118.942 126.474 119.844 126.994C120.745 127.514 121.438 128.251 121.924 129.204C122.426 130.157 122.678 131.275 122.678 132.558C122.678 132.957 122.582 133.269 122.392 133.494C122.218 133.702 121.958 133.806 121.612 133.806H114.748C114.869 134.638 115.138 135.236 115.554 135.6C115.97 135.964 116.585 136.146 117.4 136.146C117.833 136.146 118.232 136.103 118.596 136.016C118.96 135.912 119.367 135.773 119.818 135.6C120.078 135.496 120.329 135.409 120.572 135.34C120.832 135.253 121.066 135.21 121.274 135.21ZM116.828 129.334C116.221 129.334 115.736 129.533 115.372 129.932C115.008 130.313 114.791 130.877 114.722 131.622H118.804C118.7 130.097 118.041 129.334 116.828 129.334Z" fill="url(#paint7_linear_123_980)"/>
<defs>
<filter id="filter0_d_123_980" x="588.204" y="282.883" width="285.379" height="122.592" filterUnits="userSpaceOnUse" color-interpolation-filters="sRGB">
<feFlood flood-opacity="0" result="BackgroundImageFix"/>
<feColorMatrix in="SourceAlpha" type="matrix" values="0 0 0 0 0 0 0 0 0 0 0 0 0 0 0 0 0 0 127 0" result="hardAlpha"/>
<feOffset dy="2.67961"/>
<feGaussianBlur stdDeviation="13.3981"/>
<feComposite in2="hardAlpha" operator="out"/>
<feColorMatrix type="matrix" values="0 0 0 0 0 0 0 0 0 0 0 0 0 0 0 0 0 0 0.25 0"/>
<feBlend mode="normal" in2="BackgroundImageFix" result="effect1_dropShadow_123_980"/>
<feBlend mode="normal" in="SourceGraphic" in2="effect1_dropShadow_123_980" result="shape"/>
</filter>
<filter id="filter1_d_123_980" x="440.267" y="205.513" width="385.676" height="165.678" filterUnits="userSpaceOnUse" color-interpolation-filters="sRGB">
<feFlood flood-opacity="0" result="BackgroundImageFix"/>
<feColorMatrix in="SourceAlpha" type="matrix" values="0 0 0 0 0 0 0 0 0 0 0 0 0 0 0 0 0 0 127 0" result="hardAlpha"/>
<feOffset dy="3.62137"/>
<feGaussianBlur stdDeviation="18.1069"/>
<feComposite in2="hardAlpha" operator="out"/>
<feColorMatrix type="matrix" values="0 0 0 0 0 0 0 0 0 0 0 0 0 0 0 0 0 0 0.25 0"/>
<feBlend mode="normal" in2="BackgroundImageFix" result="effect1_dropShadow_123_980"/>
<feBlend mode="normal" in="SourceGraphic" in2="effect1_dropShadow_123_980" result="shape"/>
</filter>
<filter id="filter2_d_123_980" x="440.267" y="205.513" width="385.676" height="165.678" filterUnits="userSpaceOnUse" color-interpolation-filters="sRGB">
<feFlood flood-opacity="0" result="BackgroundImageFix"/>
<feColorMatrix in="SourceAlpha" type="matrix" values="0 0 0 0 0 0 0 0 0 0 0 0 0 0 0 0 0 0 127 0" result="hardAlpha"/>
<feOffset dy="3.62137"/>
<feGaussianBlur stdDeviation="18.1069"/>
<feComposite in2="hardAlpha" operator="out"/>
<feColorMatrix type="matrix" values="0 0 0 0 0 0 0 0 0 0 0 0 0 0 0 0 0 0 0.25 0"/>
<feBlend mode="normal" in2="BackgroundImageFix" result="effect1_dropShadow_123_980"/>
<feBlend mode="normal" in="SourceGraphic" in2="effect1_dropShadow_123_980" result="shape"/>
</filter>
<linearGradient id="paint0_linear_123_980" x1="35.3857" y1="139.318" x2="35.8857" y2="139.318" gradientUnits="userSpaceOnUse">
<stop stop-color="#FD377E"/>
<stop offset="1" stop-color="white"/>
</linearGradient>
<linearGradient id="paint1_linear_123_980" x1="35.3857" y1="139.318" x2="35.8857" y2="139.318" gradientUnits="userSpaceOnUse">
<stop stop-color="#FD377E"/>
<stop offset="1" stop-color="white"/>
</linearGradient>
<linearGradient id="paint2_linear_123_980" x1="35.3857" y1="139.318" x2="35.8857" y2="139.318" gradientUnits="userSpaceOnUse">
<stop stop-color="#FD377E"/>
<stop offset="1" stop-color="white"/>
</linearGradient>
<linearGradient id="paint3_linear_123_980" x1="35.3857" y1="139.318" x2="35.8857" y2="139.318" gradientUnits="userSpaceOnUse">
<stop stop-color="#FD377E"/>
<stop offset="1" stop-color="white"/>
</linearGradient>
<linearGradient id="paint4_linear_123_980" x1="35.3857" y1="139.318" x2="35.8857" y2="139.318" gradientUnits="userSpaceOnUse">
<stop stop-color="#FD377E"/>
<stop offset="1" stop-color="white"/>
</linearGradient>
<linearGradient id="paint5_linear_123_980" x1="35.3857" y1="139.318" x2="35.8857" y2="139.318" gradientUnits="userSpaceOnUse">
<stop stop-color="#FD377E"/>
<stop offset="1" stop-color="white"/>
</linearGradient>
<linearGradient id="paint6_linear_123_980" x1="35.3857" y1="139.318" x2="35.8857" y2="139.318" gradientUnits="userSpaceOnUse">
<stop stop-color="#FD377E"/>
<stop offset="1" stop-color="white"/>
</linearGradient>
<linearGradient id="paint7_linear_123_980" x1="35.3857" y1="139.318" x2="35.8857" y2="139.318" gradientUnits="userSpaceOnUse">
<stop stop-color="#FD377E"/>
<stop offset="1" stop-color="white"/>
</linearGradient>
<clipPath id="clip0_123_980">
<rect width="16.0777" height="16.0777" fill="white" transform="translate(639.117 333.796)"/>
</clipPath>
<clipPath id="clip1_123_980">
<rect width="21.7282" height="21.7282" fill="white" transform="translate(509.073 274.319)"/>
</clipPath>
<clipPath id="clip2_123_980">
<rect width="21.7282" height="21.7282" fill="white" transform="translate(509.073 274.319)"/>
</clipPath>
</defs>
</svg>
